<svg xmlns="http://www.w3.org/2000/svg" id="plan" width="19" height="19" viewBox="0 0 19 19"><g id="layers"><rect id="Rectangle_6" width="19" height="19" fill="#fff" data-name="Rectangle 6" opacity="0" transform="translate(19 19) rotate(180)"/><path id="Path_3" fill="#fff" d="M17.47,9.713a.8.8,0,0,0-.49-.691l-1.728-.74,1.817-1.045a.8.8,0,0,0-.088-1.431L10.548,3.064a.8.8,0,0,0-.627,0L3.49,5.806A.8.8,0,0,0,3.4,7.237L5.219,8.282l-1.728.74A.8.8,0,0,0,3.4,10.452L5.219,11.5l-1.728.74A.8.8,0,0,0,3.4,13.668l6.431,3.7a.8.8,0,0,0,.8,0l6.431-3.7a.8.8,0,0,0-.088-1.431l-1.728-.74,1.817-1.045A.8.8,0,0,0,17.47,9.713ZM10.235,4.68l4.631,1.97L10.235,9.311,5.6,6.65Zm-.4,6.254a.8.8,0,0,0,.8,0l2.87-1.608,1.359.579-4.631,2.621L5.6,9.866l1.359-.579Zm5.033,2.146-4.631,2.661L5.6,13.081,6.963,12.5l2.87,1.648a.8.8,0,0,0,.8,0l2.87-1.648Z" data-name="Path 3" transform="translate(-0.588 -0.588)"/></g></svg>