<svg width="24" height="24" viewBox="0 0 24 24" fill="none" xmlns="http://www.w3.org/2000/svg">
<g clip-path="url(#clip0)">
<path d="M14.8282 9.17164C14.6332 8.97664 14.3161 8.97664 14.1211 9.17164C13.9261 9.36664 13.9261 9.68464 14.1211 9.87866C14.6872 10.4447 15.0001 11.1977 15.0001 11.9997C15.0001 13.6536 13.6541 14.9997 12.0001 14.9997C11.1982 14.9997 10.4452 14.6877 9.87914 14.1207C9.68414 13.9257 9.36713 13.9257 9.17213 14.1207C8.97713 14.3147 8.97713 14.6327 9.17213 14.8277C9.92611 15.5837 10.9311 15.9997 12.0001 15.9997C14.2061 15.9997 16.0001 14.2057 16.0001 11.9997C16.0001 10.9306 15.5842 9.92563 14.8282 9.17164Z" fill="#5F6E84"/>
<path d="M12.697 8.069C12.47 8.02902 12.238 8 12 8C9.794 8 8 9.794 8 12C8 12.238 8.02902 12.47 8.06998 12.697C8.11297 12.939 8.324 13.11 8.561 13.11C8.59002 13.11 8.61899 13.108 8.64899 13.102C8.91997 13.054 9.10199 12.7939 9.05399 12.523C9.023 12.3529 8.99999 12.18 8.99999 12C8.99999 10.346 10.346 8.99998 12 8.99998C12.18 8.99998 12.353 9.023 12.523 9.053C12.789 9.107 13.054 8.91898 13.102 8.648C13.15 8.37702 12.968 8.117 12.697 8.069Z" fill="#5F6E84"/>
<path d="M23.8809 11.6765C23.7678 11.5425 21.0629 8.38552 17.3319 6.45254C17.0899 6.32555 16.7849 6.42155 16.6579 6.66755C16.5309 6.91257 16.6269 7.21453 16.8729 7.34157C19.7469 8.82956 22.0428 11.1516 22.8279 11.9996C21.6359 13.2906 16.9449 17.9996 11.9999 17.9996C10.3219 17.9996 8.6309 17.5946 6.9719 16.7945C6.7259 16.6736 6.42492 16.7786 6.30492 17.0276C6.18393 17.2756 6.28893 17.5745 6.53793 17.6945C8.33291 18.5615 10.1709 18.9995 11.9999 18.9995C18.1609 18.9995 23.6509 12.5955 23.8819 12.3225C24.0399 12.1365 24.0389 11.8635 23.8809 11.6765Z" fill="#5F6E84"/>
<path d="M15.2811 5.576C14.1431 5.19298 13.0391 5 12 5C5.83904 5 0.349052 11.404 0.118052 11.677C-0.0279632 11.849 -0.0399632 12.099 0.0900678 12.286C0.159068 12.385 1.81206 14.732 4.67706 16.635C4.76204 16.692 4.85706 16.719 4.95306 16.719C5.11407 16.719 5.27307 16.641 5.36907 16.494C5.52207 16.265 5.45907 15.954 5.22906 15.802C3.12508 14.403 1.68508 12.714 1.14607 12.027C2.29708 10.777 7.01907 6.00003 12 6.00003C12.931 6.00003 13.9281 6.17604 14.962 6.52301C15.224 6.617 15.508 6.47201 15.595 6.209C15.6831 5.94701 15.543 5.66403 15.2811 5.576Z" fill="#5F6E84"/>
<path d="M20.853 3.14625C20.658 2.95125 20.3409 2.95125 20.1459 3.14625L3.14601 20.1462C2.95101 20.3412 2.95101 20.6582 3.14601 20.8532C3.24402 20.9502 3.37199 20.9993 3.50001 20.9993C3.62802 20.9993 3.75599 20.9503 3.85302 20.8532L20.853 3.85326C21.048 3.65826 21.048 3.34125 20.853 3.14625Z" fill="#5F6E84"/>
</g>
<defs>
<clipPath id="clip0">
<rect width="24" height="24" fill="white"/>
</clipPath>
</defs>
</svg>
