<svg xmlns="http://www.w3.org/2000/svg" width="25" height="25.049" viewBox="0 0 25 25.049">
  <path id="analytics" d="M759.405,470H739.1V449.689a1.563,1.563,0,1,0-3.125,0v21.874a1.574,1.574,0,0,0,1.562,1.562h21.874a1.564,1.564,0,0,0,0-3.128Zm-12.5-3.125a1.562,1.562,0,0,1-1.3-.7l-3.125-4.686a1.563,1.563,0,1,1,2.6-1.732l1.481,2.21,2.021-5.055a1.563,1.563,0,0,1,2.317-.719l3.125,2.083,3.948-9.209a1.562,1.562,0,1,1,2.871,1.231l-4.688,10.936a1.563,1.563,0,0,1-2.3.685l-3.085-2.057-2.409,6.024a1.563,1.563,0,0,1-1.289.973,1.421,1.421,0,0,1-.167.013Z" transform="translate(-735.972 -448.075)" fill="#efaf4c" fill-rule="evenodd"/>
</svg>
