<svg xmlns="http://www.w3.org/2000/svg" width="30" height="30" viewBox="0 0 30 30">
  <g id="notification_bell" data-name="notification bell" transform="translate(-1513 -43)">
    <g id="notification_button" transform="translate(1515 45)">
      <g id="left_side_notification_button" transform="matrix(0.914, 0.407, -0.407, 0.914, 8.056, 0)">
        <g id="Group_592" data-name="Group 592" transform="translate(0 0)">
          <path id="Path_380" data-name="Path 380" d="M19.553,14.464c-2.006-1.9-2.412-4.517-2.8-7.044C16.208,3.942,15.6,0,9.94,0S3.671,3.942,3.131,7.42c-.393,2.527-.8,5.141-2.8,7.044a1.047,1.047,0,0,0,.721,1.806H5.974a3.991,3.991,0,0,0,7.931,0h4.927a1.047,1.047,0,0,0,.721-1.806ZM9.94,17.975A2.163,2.163,0,0,1,7.828,16.27h4.223A2.163,2.163,0,0,1,9.94,17.975Zm-6.7-3.8A16.5,16.5,0,0,0,5.2,7.741C5.794,3.927,6.243,2.094,9.94,2.094s4.146,1.833,4.739,5.648a16.5,16.5,0,0,0,1.957,6.435Z" transform="translate(0 0)" fill="#66329e"/>
        </g>
      </g>
    </g>
    <g id="Rectangle_1924" data-name="Rectangle 1924" transform="translate(1513 43)" fill="none" stroke="#efaf4c" stroke-width="2">
      <rect width="30" height="30" rx="10" stroke="none"/>
      <rect x="1" y="1" width="28" height="28" rx="9" fill="none"/>
    </g>
  </g>
</svg>
