<svg xmlns="http://www.w3.org/2000/svg" width="25" height="25" viewBox="0 0 25 25">
  <path id="view_campaign" data-name="view campaign" d="M501.875,128h-18.75A3.125,3.125,0,0,0,480,131.125v12.5a3.125,3.125,0,0,0,3.125,3.125h4.688v3.125h-3.125a1.563,1.563,0,0,0,0,3.125h15.625a1.563,1.563,0,0,0,0-3.125h-3.125V146.75h4.688A3.125,3.125,0,0,0,505,143.625v-12.5A3.125,3.125,0,0,0,501.875,128Zm-7.812,21.875h-3.125V146.75h3.125Zm7.813-6.25h-18.75v-12.5h18.75Z" transform="translate(-480 -128)" fill="#efaf4c" fill-rule="evenodd"/>
</svg>
