<svg xmlns="http://www.w3.org/2000/svg" width="26" height="26" viewBox="0 0 26 26">
  <path id="add_image_" data-name="add image " d="M310.75,160h-19.5a3.26,3.26,0,0,0-3.25,3.25v13a3.26,3.26,0,0,0,3.25,3.25h8.125a1.625,1.625,0,0,0,0-3.25H291.25v-13h19.5v8.125a1.625,1.625,0,0,0,3.25,0V163.25a3.26,3.26,0,0,0-3.25-3.25Zm-13,6.5-4.875,8.125h12.8a1.844,1.844,0,0,0,1.534-2.867l-1.339-2.008-3.25,3.25Zm8.125,0a1.625,1.625,0,1,0-1.625,1.625A1.625,1.625,0,0,0,305.875,166.5Zm6.5,13H310.75v-1.625a1.625,1.625,0,0,0-3.25,0V179.5h-1.625a1.625,1.625,0,0,0,0,3.25H307.5v1.625a1.625,1.625,0,0,0,3.25,0V182.75h1.625a1.625,1.625,0,0,0,0-3.25Z" transform="translate(-288 -160)" fill="#fff" fill-rule="evenodd"/>
</svg>
