<svg xmlns="http://www.w3.org/2000/svg" width="12.68" height="10.875" viewBox="0 0 12.68 10.875">
  <path id="arrow_right" data-name="arrow right" d="M6.99,11.1V5.548H9.321L5.438,1.585,1.555,5.548H3.886V11.1H7M7,12.68H3.886A1.57,1.57,0,0,1,2.332,11.1V7.133H1.555A1.555,1.555,0,0,1,.118,6.154,1.608,1.608,0,0,1,.456,4.427L4.339.465a1.533,1.533,0,0,1,2.2,0L10.42,4.427a1.608,1.608,0,0,1,.337,1.727,1.554,1.554,0,0,1-1.436.979H8.544V11.1A1.57,1.57,0,0,1,6.99,12.68h0Z" transform="translate(12.68) rotate(90)" fill="#efaf4c" fill-rule="evenodd"/>
</svg>
