<svg xmlns="http://www.w3.org/2000/svg" width="15.827" height="15.83" viewBox="0 0 15.827 15.83">
  <path id="arrows_down_up" d="M679.665,707.278,676.7,704.31a.99.99,0,0,0-1.4,0l-2.968,2.968a.99.99,0,0,0,1.4,1.4l1.279-1.279V718.86a.99.99,0,0,0,1.979,0V707.4l1.279,1.279a.989.989,0,1,0,1.4-1.4Zm7.914,7.914a.99.99,0,0,0-1.4,0l-1.279,1.279V705.01a.989.989,0,0,0-1.978,0v11.461l-1.28-1.279a.99.99,0,0,0-1.4,1.4l2.967,2.968a.99.99,0,0,0,1.4,0l2.968-2.968a.988.988,0,0,0,0-1.4Z" transform="translate(-672.042 -704.02)" fill="#66329e" fill-rule="evenodd"/>
</svg>
