<svg xmlns="http://www.w3.org/2000/svg" width="25" height="25.128" viewBox="0 0 25 25.128">
  <path id="background_removal" data-name="background removal" d="M535.067,555.45a.465.465,0,0,0-.046-.031c-.013-.011-.017-.028-.03-.041l-12.5-11c-.024-.021-.055-.024-.079-.042a1.5,1.5,0,0,0-.388-.211,1.686,1.686,0,0,0-.189-.08,1.618,1.618,0,0,0-.486-.025,1.323,1.323,0,0,0-.157,0h-.039c-2.127.427-9.067,2.144-9.067,6.259a5.5,5.5,0,0,0,2.551,4.4l-2.358,4.267a1.572,1.572,0,0,0,.365,1.971l9.376,7.859a1.556,1.556,0,0,0,2.1-.1l9.39-9.451a13.065,13.065,0,0,1,.442,3.631,1.562,1.562,0,1,0,3.125,0C537.089,557.741,535.405,555.783,535.067,555.45Zm-19.853-5.179c0-.583,1.27-1.415,3.03-2.122l-2.07,3.749a2.248,2.248,0,0,1-.96-1.627Zm7.716,15.172-7.284-6.111,1.729-3.12a29.553,29.553,0,0,0,7,1.9,1.572,1.572,0,1,0,.443-3.112,26.763,26.763,0,0,1-5.911-1.58l2.986-5.405,9.787,8.62Z" transform="translate(-512.082 -544.009)" fill="#efaf4c" fill-rule="evenodd"/>
</svg>
