<svg xmlns="http://www.w3.org/2000/svg" id="campaign" width="41" height="41" viewBox="0 0 41 41"><g id="Group_2227" data-name="Group 2227" transform="translate(0 0)"><path id="Path_381" fill="#fff" d="M26.906,15.032l-1.6-1.6L23.04,15.7l3.866,3.866,7.07-7.07-2.265-2.265ZM18.9,14.094a4.8,4.8,0,1,0-4.8,4.8A4.81,4.81,0,0,0,18.9,14.094Zm-4.8,1.6a1.6,1.6,0,1,1,1.6-1.6A1.6,1.6,0,0,1,14.094,15.7ZM37.8,3.158V0h-3.2V2.883H28.508V0H25.3V2.883H15.7V0h-3.2V2.883H6.406V0H3.2V3.158A4.812,4.812,0,0,0,0,7.688V26.906a4.81,4.81,0,0,0,4.8,4.8H9.289v2.883H2.883v3.2H18.9V41h3.2V37.8H38.117v-3.2H31.711V31.711H36.2a4.81,4.81,0,0,0,4.8-4.8V7.688a4.812,4.812,0,0,0-3.2-4.529ZM18.9,34.594H12.492V31.711H18.9Zm0-6.086H9.289V23.7a1.6,1.6,0,0,1,1.6-1.6h1.6v3.2h3.2V22.1h1.6a1.6,1.6,0,0,1,1.6,1.6Zm9.609,6.086H22.1V31.711h6.406ZM37.8,26.906a1.6,1.6,0,0,1-1.6,1.6H22.1V23.7a4.81,4.81,0,0,0-4.8-4.8H10.891a4.81,4.81,0,0,0-4.8,4.8v4.8H4.8a1.6,1.6,0,0,1-1.6-1.6V7.688a1.6,1.6,0,0,1,1.6-1.6H36.2a1.6,1.6,0,0,1,1.6,1.6Z" data-name="Path 381" transform="translate(0 0)"/></g></svg>