<svg xmlns="http://www.w3.org/2000/svg" xmlns:xlink="http://www.w3.org/1999/xlink" width="153.1" height="112.748" viewBox="0 0 153.1 112.748">
  <defs>
    <clipPath id="clip-path">
      <path id="Path_1510" data-name="Path 1510" d="M31897.059,40608.867c-1.367-1.5-2.7-3.047-3.977-4.617a46.249,46.249,0,0,1,3.648-13.781c-.137-.078-.281-.148-.426-.219a47.492,47.492,0,0,0-3.648,13.469,106.812,106.812,0,0,1-11.086-16.758,15.881,15.881,0,0,0,7.074,1.914c.105,0,.223,0,.344-.008h.6a15.306,15.306,0,0,1,7.434,1.742l.039,18.258Z" transform="translate(-31881.57 -40586.961)" clip-rule="evenodd"/>
    </clipPath>
    <clipPath id="clip-path-2">
      <path id="Path_1521" data-name="Path 1521" d="M27517.725,54061.227h5.773c.293-.68.57-1.242.8-1.687l.242.242c-.2.391-.441.875-.691,1.445h.758v-1.375a11.774,11.774,0,0,0-8.324-3.516,10.2,10.2,0,0,0-5.586,1.609,36.547,36.547,0,0,0,3.484,1.727c-.09-1.031-.133-2.062-.133-3.109.113-.016.223-.047.332-.062,0,1.125.051,2.227.141,3.313a1.965,1.965,0,0,1,.227.094C27515.85,54060.344,27516.842,54060.781,27517.725,54061.227Z" transform="translate(-27510.701 -54056.336)" clip-rule="evenodd"/>
    </clipPath>
    <clipPath id="clip-path-3">
      <path id="Path_1522" data-name="Path 1522" d="M34679.3,55828.582h0a10.452,10.452,0,0,1,2.414,3.711v20.039c-.52-.109-1.016-.211-1.5-.3-.3-.328-.609-.672-.91-1v-12.172a5.762,5.762,0,0,0,0-2.437v-7.742l.031-.07Zm0,23.039v.242c.094.016.172.039.266.047Z" transform="translate(-34679.297 -55828.582)" clip-rule="evenodd"/>
    </clipPath>
    <clipPath id="clip-path-4">
      <path id="Path_1523" data-name="Path 1523" d="M31054.367,56542.949h.9c.309-.961.637-1.8.945-2.516h-6.012A22.89,22.89,0,0,1,31054.367,56542.949Zm1.242,0h1.68v-2.516h-.715C31056.266,56541.145,31055.922,56541.988,31055.609,56542.949Z" transform="translate(-31050.203 -56540.434)" clip-rule="evenodd"/>
    </clipPath>
    <clipPath id="clip-path-5">
      <path id="Path_1524" data-name="Path 1524" d="M35881.7,57623.594v20.273c.777.164,1.582.344,2.422.539v-13.523a35.9,35.9,0,0,1-1.93-5.773A9.53,9.53,0,0,0,35881.7,57623.594Z" transform="translate(-35881.703 -57623.594)" clip-rule="evenodd"/>
    </clipPath>
    <clipPath id="clip-path-6">
      <path id="Path_1525" data-name="Path 1525" d="M33154.234,57795.828h.7v-2.555h-1.648c-.109.313-.2.625-.3.961A7.376,7.376,0,0,1,33154.234,57795.828Zm-1.289-2.555h-1.055c.3.242.586.477.828.711C33152.8,57793.742,33152.875,57793.508,33152.945,57793.273Z" transform="translate(-33151.891 -57793.273)" clip-rule="evenodd"/>
    </clipPath>
    <clipPath id="clip-path-7">
      <path id="Path_1527" data-name="Path 1527" d="M37083.9,61285.5v13.727c.781.18,1.59.391,2.41.6v-9.633A33.948,33.948,0,0,1,37083.9,61285.5Z" transform="translate(-37083.902 -61285.5)" clip-rule="evenodd"/>
    </clipPath>
    <linearGradient id="linear-gradient" x1="-0.267" y1="1.582" x2="0.795" y2="0.387" gradientUnits="objectBoundingBox">
      <stop offset="0" stop-color="#e38ddd"/>
      <stop offset="1" stop-color="#9571f6"/>
    </linearGradient>
    <linearGradient id="linear-gradient-2" x1="-0.388" y1="1.412" x2="0.69" y2="0.358" gradientUnits="objectBoundingBox">
      <stop offset="0" stop-color="#ebaae7"/>
      <stop offset="1" stop-color="#b193f8"/>
    </linearGradient>
    <linearGradient id="linear-gradient-3" x1="-11.735" y1="3.187" x2="-1.387" y2="-1.479" gradientUnits="objectBoundingBox">
      <stop offset="0" stop-color="#efbbec"/>
      <stop offset="1" stop-color="#c1a9f9"/>
    </linearGradient>
    <linearGradient id="linear-gradient-4" x1="-0.344" y1="1.762" x2="0.828" y2="0.356" gradientUnits="objectBoundingBox">
      <stop offset="0" stop-color="#e9a4e4"/>
      <stop offset="1" stop-color="#aa8df8"/>
    </linearGradient>
    <linearGradient id="linear-gradient-5" x1="-0.448" y1="1.628" x2="0.727" y2="0.345" xlink:href="#linear-gradient-3"/>
    <linearGradient id="linear-gradient-6" x1="-2.237" y1="7.48" x2="5.193" y2="0.701" gradientUnits="objectBoundingBox">
      <stop offset="0" stop-color="#f8e2f6"/>
      <stop offset="1" stop-color="#e4dafd"/>
    </linearGradient>
    <clipPath id="clip-path-8">
      <path id="Path_1545" data-name="Path 1545" d="M46946.066,37088.715c-.957,0-1.719-.957-1.73-2.23a2.627,2.627,0,0,1,1.895-2.707c.07,0,.148,0,.219,0,.973,0,1.723.945,1.734,2.219a2.6,2.6,0,0,1-1.918,2.7A.691.691,0,0,1,46946.066,37088.715Zm-.68-3.867.008,2.855,2.211-1.711-2.219-1.145Z" transform="translate(-46944.336 -37083.773)" clip-rule="evenodd"/>
    </clipPath>
    <clipPath id="clip-path-9">
      <path id="Path_1546" data-name="Path 1546" d="M47489.254,37647.68l-.008-2.852,2.219,1.141-2.211,1.711Z" transform="translate(-47489.246 -37644.828)" clip-rule="evenodd"/>
    </clipPath>
    <linearGradient id="linear-gradient-7" x1="-2.246" y1="6.748" x2="5.195" y2="-0.662" xlink:href="#linear-gradient-6"/>
    <linearGradient id="linear-gradient-8" x1="-50.192" y1="56.111" x2="67.151" y2="-14.608" gradientUnits="objectBoundingBox">
      <stop offset="0" stop-color="#fae9f9"/>
      <stop offset="1" stop-color="#ebe3fd"/>
    </linearGradient>
    <clipPath id="clip-path-10">
      <path id="Path_1551" data-name="Path 1551" d="M46988.742,46684.313a2.148,2.148,0,0,1-1.859-2.359,2.379,2.379,0,0,1,1.895-2.555h.1a2.12,2.12,0,0,1,1.84,2.352,2.366,2.366,0,0,1-1.922,2.563Zm-.867-3.8.008,2.852,2.211-1.711-2.219-1.141Z" transform="translate(-46986.883 -46679.398)" clip-rule="evenodd"/>
    </clipPath>
    <clipPath id="clip-path-11">
      <path id="Path_1552" data-name="Path 1552" d="M47503.664,47257.313l-.008-2.863,2.219,1.145-2.211,1.719Z" transform="translate(-47503.656 -47254.449)" clip-rule="evenodd"/>
    </clipPath>
    <linearGradient id="linear-gradient-9" x1="-2.257" y1="63.114" x2="5.208" y2="-19.349" xlink:href="#linear-gradient-8"/>
    <linearGradient id="linear-gradient-10" x1="-4.107" y1="70.636" x2="7.596" y2="-23.744" xlink:href="#linear-gradient-8"/>
    <linearGradient id="linear-gradient-11" x1="-2.931" y1="5.622" x2="6.755" y2="-2.203" xlink:href="#linear-gradient-6"/>
    <linearGradient id="linear-gradient-12" x1="-8.084" y1="5.494" x2="12.709" y2="-2.153" xlink:href="#linear-gradient-8"/>
    <clipPath id="clip-path-12">
      <path id="Path_1557" data-name="Path 1557" d="M47031.594,56250.25h-.055a2.317,2.317,0,0,1-1.906-2.5,2.165,2.165,0,0,1,1.867-2.4h.02a2.312,2.312,0,0,1,1.945,2.5A2.171,2.171,0,0,1,47031.594,56250.25Zm-.949-3.828.016,2.852,2.207-1.7-2.223-1.148Z" transform="translate(-47029.633 -56245.352)" clip-rule="evenodd"/>
    </clipPath>
    <clipPath id="clip-path-13">
      <path id="Path_1558" data-name="Path 1558" d="M47558.516,56805.633l-.02-2.852,2.223,1.141-2.2,1.711Z" transform="translate(-47558.496 -56802.781)" clip-rule="evenodd"/>
    </clipPath>
    <linearGradient id="linear-gradient-13" x1="-2.265" y1="30.68" x2="5.207" y2="-21.97" xlink:href="#linear-gradient-8"/>
    <linearGradient id="linear-gradient-14" x1="-45.441" y1="6.159" x2="-8.517" y2="-1.394" gradientUnits="objectBoundingBox">
      <stop offset="0" stop-color="#f7ddf5"/>
      <stop offset="1" stop-color="#e0d4fc"/>
    </linearGradient>
    <linearGradient id="linear-gradient-15" x1="-2.233" y1="4.378" x2="1.961" y2="0.414" gradientUnits="objectBoundingBox">
      <stop offset="0" stop-color="#f6dbf4"/>
      <stop offset="1" stop-color="#ddd1fc"/>
    </linearGradient>
    <linearGradient id="linear-gradient-16" x1="-0.704" y1="2.193" x2="0.68" y2="0.283" gradientUnits="objectBoundingBox">
      <stop offset="0" stop-color="#f9e4f7"/>
      <stop offset="1" stop-color="#e6ddfd"/>
    </linearGradient>
    <linearGradient id="linear-gradient-17" x1="-0.638" y1="-1.352" x2="1.558" y2="2.517" gradientUnits="objectBoundingBox">
      <stop offset="0" stop-color="#311944"/>
      <stop offset="1" stop-color="#893976"/>
    </linearGradient>
    <linearGradient id="linear-gradient-18" x1="0.618" y1="0.105" x2="0.178" y2="1.597" gradientUnits="objectBoundingBox">
      <stop offset="0" stop-color="#ff9085"/>
      <stop offset="1" stop-color="#fb6fbb"/>
    </linearGradient>
    <clipPath id="clip-path-14">
      <path id="Path_1565" data-name="Path 1565" d="M98570.813,61944.578v0Z" transform="translate(-98570.813 -61944.57)" clip-rule="evenodd"/>
    </clipPath>
  </defs>
  <g id="collections_illustration" data-name="collections illustration" transform="translate(-21456.992 -16740.373)">
    <path id="Path_1505" data-name="Path 1505" d="M32054.008,18224.912l.008-.014h0l-.008.014Z" transform="translate(-10588.264 -1484.525)" fill="#fff"/>
    <g id="Group_2353" data-name="Group 2353" transform="translate(21465.414 16783.447)" clip-path="url(#clip-path)">
      <rect id="Rectangle_1954" data-name="Rectangle 1954" width="15.607" height="22.034" transform="translate(-0.062 -0.075)" fill="none"/>
    </g>
    <g id="Group_2354" data-name="Group 2354" transform="translate(21456.992 16809.387)" clip-path="url(#clip-path-2)">
      <rect id="Rectangle_1955" data-name="Rectangle 1955" width="13.974" height="4.953" transform="translate(-0.063 -0.053)" fill="none"/>
    </g>
    <g id="Group_2355" data-name="Group 2355" transform="translate(21470.801 16812.803)" clip-path="url(#clip-path-3)">
      <rect id="Rectangle_1956" data-name="Rectangle 1956" width="2.426" height="26.742" transform="translate(-0.003 -1.061)" fill="none"/>
    </g>
    <g id="Group_2356" data-name="Group 2356" transform="translate(21463.813 16814.176)" clip-path="url(#clip-path-4)">
      <rect id="Rectangle_1957" data-name="Rectangle 1957" width="9.352" height="2.53" transform="translate(-2.258 -0.009)" fill="none"/>
    </g>
    <g id="Group_2357" data-name="Group 2357" transform="translate(21473.115 16816.264)" clip-path="url(#clip-path-5)">
      <rect id="Rectangle_1958" data-name="Rectangle 1958" width="2.444" height="24.319" transform="translate(-0.017 -2.096)" fill="none"/>
    </g>
    <g id="Group_2358" data-name="Group 2358" transform="translate(21467.857 16816.586)" clip-path="url(#clip-path-6)">
      <rect id="Rectangle_1959" data-name="Rectangle 1959" width="4.712" height="2.564" transform="translate(-1.667 -0.017)" fill="none"/>
    </g>
    <g id="Group_2360" data-name="Group 2360" transform="translate(21475.432 16823.316)" clip-path="url(#clip-path-7)">
      <rect id="Rectangle_1961" data-name="Rectangle 1961" width="2.444" height="17.05" transform="translate(-0.012 -1.88)" fill="none"/>
    </g>
    <path id="Path_1532" data-name="Path 1532" d="M40437.766,20224.266c3.273.389,5.961-1.566,5.945-4.359l-.219-100.559c0-2.787-2.7-4.6-5.969-4.039l-.422.066-.383.518-118.742,20.641a2.868,2.868,0,0,0-2.7,2.98l.141,67.059c0,1.859,1.453,2.674,2.969,2.854l118.2,13.049.688,1.736Z" transform="translate(-18833.619 -3371.193)" fill="#97a6b7"/>
    <path id="Path_1533" data-name="Path 1533" d="M39999.172,20312.813c3.246.375,5.926-1.57,5.922-4.355l-.223-100.328c0-2.781-2.7-4.59-5.941-4.031l-119.051,20.3c-1.5.254-2.711,1.977-2.7,3.832l.148,66.93c0,1.863,1.211,3.512,2.719,3.688l119.129,13.961Z" transform="translate(-18396.365 -3459.811)" fill="#d8dee8"/>
    <path id="Path_1534" data-name="Path 1534" d="M40534.633,22311.857a17,17,0,0,1-6.285-1.4l-.031-14.564-.113-51.918a2,2,0,0,1,1.445-2.043l110.07-18.1c-.2.59-.414,1.15-.645,1.686l-109.426,17.518a.78.78,0,0,0-.566.8l.141,62.836a.727.727,0,0,0,.578.758l11.926,1.061a8.866,8.866,0,0,1-1.8,1.73A8.745,8.745,0,0,1,40534.633,22311.857Z" transform="translate(-19046.141 -5475.757)" fill="#ced5e2"/>
    <path id="Path_1535" data-name="Path 1535" d="M41000.453,23182.016l-11.93-1.061a.726.726,0,0,1-.57-.76l-.141-62.826a.786.786,0,0,1,.57-.807l109.418-17.518a18.355,18.355,0,0,1-3.273,5.107,18.715,18.715,0,0,1-2.113,1.949l-27.07,4.344h-.055c-4.613,0-8.926.326-12.395,1.994l-60.223,9.662.27,53.736,10,.73A14.534,14.534,0,0,1,41000.453,23182.016Z" transform="translate(-19504.863 -6349.283)" fill-rule="evenodd" fill="url(#linear-gradient)"/>
    <path id="Path_1536" data-name="Path 1536" d="M98779.508,20254.5h0l8.3-1.41Zm8.3-1.41c.008,0,.008-.006.008-.006S98787.813,20253.086,98787.8,20253.086Zm.008-.006h0Z" transform="translate(-77185.242 -3508.801)" fill="#fff"/>
    <path id="Path_1537" data-name="Path 1537" d="M103692.469,20308.533v0Zm-.234-100.342c0-2.437-2.078-4.135-4.8-4.135C103690.156,20204.057,103692.234,20205.754,103692.234,20208.191Zm-4.8-4.135Z" transform="translate(-82083.734 -3459.871)" fill="#b2becb"/>
    <path id="Path_1538" data-name="Path 1538" d="M40075.383,20312.816h0a7.97,7.97,0,0,1-.816-.045l-18.578-2.18a8.518,8.518,0,0,0-1.488-2.367l20.066,2.232c.137.014.277.021.414.021a2.5,2.5,0,0,0,2.73-2.352l-.047-21.936-.172-77.66a2.325,2.325,0,0,0-2.555-2.211,3.168,3.168,0,0,0-.6.051l-8.98,1.479c.246-.742.48-1.529.672-2.377l8.3-1.416h.016v0c.016,0,.02,0,.031,0a7.08,7.08,0,0,1,1.109-.092h0c2.711,0,4.785,1.693,4.789,4.137h0l.223,100.326h0v.012c0,2.543-2.246,4.385-5.113,4.385Zm-41.621-4.828-9.469-1.109a11.083,11.083,0,0,0,2.176-1.768l10.113,1.123A15.36,15.36,0,0,0,40033.762,20307.988Zm-25.516-3-1.574-.182-.926-.111-8.352-.975a15.119,15.119,0,0,0-2.945-2.17l13.07,1.453a6.236,6.236,0,0,0,.309,1.09A6.551,6.551,0,0,0,40008.246,20304.992Zm-23.441-2.742-13.551-1.592-4.652-.551-.34-.031-.516-.064-10.3-1.205c-1.5-.178-2.715-1.828-2.719-3.686v-1.189c.418.2.848.373,1.254.541v.777a1.9,1.9,0,0,0,1.461,1.973l31.871,3.539A8.694,8.694,0,0,0,39984.8,20302.25Z" transform="translate(-18471.771 -3459.772)" fill="#e3e8ef"/>
    <path id="Path_1539" data-name="Path 1539" d="M40725.781,21535.76c-.133,0-.273-.008-.414-.021l-20.07-2.232a12.664,12.664,0,0,0-9.547-3.812,16.639,16.639,0,0,0-3.336.338c-.437.053-.891.131-1.344.227a16.742,16.742,0,0,0-3.687,1.258l-10.117-1.123a7.792,7.792,0,0,0,2.266-7.162l45.828,4.07c.031,0,.07,0,.109,0a1.014,1.014,0,0,0,1.109-.939l-.211-92.248a.906.906,0,0,0-1-.863c-.07,0-.141.006-.227.014l-9.633,1.547c.234-.533.445-1.094.656-1.689l8.977-1.473a3.581,3.581,0,0,1,.594-.049,2.321,2.321,0,0,1,2.555,2.209l.172,77.656.063,21.938A2.513,2.513,0,0,1,40725.781,21535.76Zm-67.469-7.473-13.062-1.449a9.189,9.189,0,0,0-4.5-1.27,7.642,7.642,0,0,0-1.227.1,7.948,7.948,0,0,0-1.406.373l-31.875-3.541a1.9,1.9,0,0,1-1.453-1.969v-.783a16.914,16.914,0,0,0,6.281,1.4,8.774,8.774,0,0,0,5.3-1.637,9.013,9.013,0,0,0,1.789-1.73l42.328,3.756A7.881,7.881,0,0,0,40658.313,21528.287Z" transform="translate(-19122.578 -4685.054)" fill="#dce1ea"/>
    <path id="Path_1540" data-name="Path 1540" d="M47659.117,22383.068c-.035,0-.074,0-.117,0l-45.824-4.072a5.672,5.672,0,0,0-.27-.834,2.357,2.357,0,0,0-.113-.3.21.21,0,0,0-.031-.051c-.039-.094-.086-.191-.133-.287,0-.014-.008-.023-.008-.039-.105-.2-.223-.391-.344-.58l0-.01a9.422,9.422,0,0,0-8.039-3.842,12.677,12.677,0,0,0-4.215.727c-.3.1-.6.217-.883.342-.043.018-.09.027-.141.047a11.877,11.877,0,0,0-4.871,3.139l-42.312-3.756a14.53,14.53,0,0,0,2.484-5.441l70.82,5.17a11.076,11.076,0,0,0,2.91,2.99,10.411,10.411,0,0,1-2.152,2.791,7,7,0,0,0,3.039.77,5.3,5.3,0,0,0,3.676-1.5q.357.1.738.164h-.012a15.2,15.2,0,0,0,2.887.275,16.553,16.553,0,0,0,1.828-.105h.012a.05.05,0,0,1,.023-.006l.031,0h0l.02,0h0c.176-.021.348-.047.52-.07.012,0,.016-.006.02-.006.035,0,.063-.006.1-.006.105-.012.215-.021.324-.035a15.8,15.8,0,0,0,4.133-1.074c.1-.039.207-.086.309-.129.152-.062.3-.137.449-.207.1-.045.2-.094.285-.141.152-.072.293-.15.441-.229.332-.184.652-.373.965-.574a1.506,1.506,0,0,1,.137-.09,13.207,13.207,0,0,0,1.527-1.193l6.152.449.051-21.244a9.417,9.417,0,0,0,3.051-6.514,7.675,7.675,0,0,0-3.008-6.607l.121-44.937-9.926,1.59a17.313,17.313,0,0,0,2.117-1.949,18.149,18.149,0,0,0,3.27-5.107l9.637-1.543a1.554,1.554,0,0,1,.227-.018.909.909,0,0,1,1,.863l.207,92.252A1.009,1.009,0,0,1,47659.117,22383.068Zm-54.867-79.1c3.469-1.668,7.785-2,12.387-2h.063Z" transform="translate(-26056.219 -5540.814)" fill-rule="evenodd" fill="url(#linear-gradient-2)"/>
    <path id="Path_1541" data-name="Path 1541" d="M94511.93,56100.961l-6.148-.445a4.846,4.846,0,0,0,.406-.383c.039-.039.07-.062.125-.109a11.077,11.077,0,0,0,3.2-6.031c.016-.086.023-.187.031-.273a3.931,3.931,0,0,1,.063-.437c.023-.3.023-.586.023-.883a4.241,4.241,0,0,0-.016-.445,6.632,6.632,0,0,0-.133-1.039c-.008-.078-.016-.164-.023-.227v-.031a1.291,1.291,0,0,1-.031-.234l-.031-.008c-.891-4.1-4.336-7.109-8.7-8.219l7.492-.414a8.682,8.682,0,0,0,3.8-2.07Z" transform="translate(-72914.664 -39266.43)" fill-rule="evenodd" fill="url(#linear-gradient-3)"/>
    <path id="Path_1542" data-name="Path 1542" d="M43524.352,26833.65l-10-.73-.266-53.738,60.227-9.66a12.169,12.169,0,0,0-4.641,3.832,11.67,11.67,0,0,0-2.023,4.516,20.786,20.786,0,0,0-7.555,15.086,17.5,17.5,0,0,0,.09,2.84,13.3,13.3,0,0,0-4.785-.887c-.238,0-.484.008-.727.02a16.062,16.062,0,0,0-12.652,7.906,15.6,15.6,0,0,0-9.852,4.336,14.859,14.859,0,0,0-1.379,1.539l-.055-11.617-15.648,1.207.055,12.168,14.648-.355a22.011,22.011,0,0,0-2.559,6.035h-12.062l.063,12.141,10.012.523A42.164,42.164,0,0,1,43524.352,26833.65Zm6.32-55.668L43515,26780.4l.059,12.2,15.664-1.586Zm65.168-10.32c-1.527,0-3.078-.039-4.6-.07s-3.016-.066-4.473-.066l27.066-4.34C43608.863,26767.045,43602.4,26767.662,43595.84,26767.662Z" transform="translate(-22026.275 -10006.366)" fill-rule="evenodd" fill="url(#linear-gradient-4)"/>
    <path id="Path_1543" data-name="Path 1543" d="M48912.93,26014.355l-70.828-5.176a43.056,43.056,0,0,0,.887-4.84l5.625.293-.059-12.953-3.57,0a21.512,21.512,0,0,1,2.559-6.035l.988-.027v-1.379a17.578,17.578,0,0,1,1.379-1.539,15.706,15.706,0,0,1,9.859-4.34,17,17,0,0,0-2.473,8.1c-.328,8.012,5.258,14.266,12.684,14.5q.246.012.469.012c.238,0,.477,0,.723-.02l48.914-2.723c-5.242,1.836-8.723,6.238-8.738,10.914a9.828,9.828,0,0,0,.133,1.539A9.44,9.44,0,0,0,48912.93,26014.355Zm-19.621-25.051a2.368,2.368,0,0,1-2.387-2.375v-17.508a2.37,2.37,0,0,1,2.371-2.375,2.431,2.431,0,0,1,1.066.258l13.7,8.164a2.381,2.381,0,0,1,.391,4l-13.7,9.332A2.331,2.331,0,0,1,48893.309,25989.3Zm48.063-7.25a7.006,7.006,0,0,0-4.219-1.367c-.129,0-.262.008-.391.012a8.024,8.024,0,0,0-2.691.617,20.878,20.878,0,0,0,.691-4.484c.414-10.223-6.887-18.172-16.473-18.172-.293,0-.605.012-.914.023a18.3,18.3,0,0,0-5.391,1.129,15.665,15.665,0,0,0-14.937-10.746c-.3,0-.594.008-.883.02a18.533,18.533,0,0,0-10.77,4.309,11.823,11.823,0,0,1,2.027-4.516,12.118,12.118,0,0,1,4.641-3.832l12.441-2c1.461,0,2.965.039,4.477.07,1.527.035,3.07.07,4.613.07,6.555,0,13.012-.613,17.977-4.48l9.926-1.59Z" transform="translate(-27344.021 -9181.89)" fill-rule="evenodd" fill="url(#linear-gradient-5)"/>
    <path id="Path_1544" data-name="Path 1544" d="M43984.078,34461.105l-.07-12.2,15.672-2.418.055,13.023Zm7.742-9.539a.892.892,0,0,0-.211.016,2.636,2.636,0,0,0-1.906,2.7c.012,1.27.773,2.23,1.738,2.23a.907.907,0,0,0,.184-.012,2.6,2.6,0,0,0,1.926-2.715C43993.543,34452.516,43992.777,34451.566,43991.82,34451.566Z" transform="translate(-22495.285 -17674.867)" fill-rule="evenodd" fill="url(#linear-gradient-6)"/>
    <g id="Group_2361" data-name="Group 2361" transform="translate(21494.422 16776.697)" clip-path="url(#clip-path-8)">
      <rect id="Rectangle_1962" data-name="Rectangle 1962" width="3.973" height="5.09" transform="translate(-0.051 -0.081)" fill="none"/>
    </g>
    <g id="Group_2362" data-name="Group 2362" transform="translate(21495.473 16777.777)" clip-path="url(#clip-path-9)">
      <rect id="Rectangle_1963" data-name="Rectangle 1963" width="2.323" height="2.959" transform="translate(-0.052 -0.045)" fill="none"/>
    </g>
    <path id="Path_1547" data-name="Path 1547" d="M44018.2,41947.016l15.664-1.445-.016-.969-15.656,1.5Z" transform="translate(-22529.406 -25158.543)" fill="#fff"/>
    <path id="Path_1548" data-name="Path 1548" d="M46966,42820.223l9.984-.848v-.973l-9.984.887Z" transform="translate(-25471.535 -26030.66)" fill="#fff"/>
    <path id="Path_1549" data-name="Path 1549" d="M44029.215,44381.227l-.055-12.172,15.648-1.2.055,11.617c-.355.461-.691.922-.992,1.4Zm7.629-8.926h-.1a2.378,2.378,0,0,0-1.887,2.555,2.129,2.129,0,0,0,1.848,2.355h.063a2.333,2.333,0,0,0,1.918-2.539A2.143,2.143,0,0,0,44036.844,44372.3Z" transform="translate(-22540.352 -27577.123)" fill-rule="evenodd" fill="url(#linear-gradient-7)"/>
    <path id="Path_1550" data-name="Path 1550" d="M51666.008,50401.461c.3-.477.625-.937.984-1.4l.008,1.375Z" transform="translate(-30162.488 -33597.719)" fill-rule="evenodd" fill="url(#linear-gradient-8)"/>
    <g id="Group_2363" data-name="Group 2363" transform="translate(21494.506 16795.176)" clip-path="url(#clip-path-10)">
      <rect id="Rectangle_1964" data-name="Rectangle 1964" width="3.956" height="5.038" transform="translate(-0.064 -0.056)" fill="none"/>
    </g>
    <g id="Group_2364" data-name="Group 2364" transform="translate(21495.502 16796.287)" clip-path="url(#clip-path-11)">
      <rect id="Rectangle_1965" data-name="Rectangle 1965" width="2.323" height="2.993" transform="translate(-0.045 -0.064)" fill="none"/>
    </g>
    <path id="Path_1553" data-name="Path 1553" d="M44063.406,51846.508l15.641-.234v-.969l-15.648.289Z" transform="translate(-22574.523 -35040.176)" fill-rule="evenodd" fill="url(#linear-gradient-9)"/>
    <path id="Path_1554" data-name="Path 1554" d="M47008.707,52718.152l9.977-.078-.012-.969-9.969.117Z" transform="translate(-25514.156 -35910.293)" fill-rule="evenodd" fill="url(#linear-gradient-10)"/>
    <path id="Path_1555" data-name="Path 1555" d="M44084.7,54272.758l-10.016-.531-.055-12.141h12.063C44085.563,54264.219,44085.25,54268.672,44084.7,54272.758Zm-2.516-8.844a2.171,2.171,0,0,0-1.867,2.4,2.337,2.337,0,0,0,1.914,2.5h.055a2.168,2.168,0,0,0,1.867-2.406,2.3,2.3,0,0,0-1.937-2.492Z" transform="translate(-22585.727 -37450.297)" fill-rule="evenodd" fill="url(#linear-gradient-11)"/>
    <path id="Path_1556" data-name="Path 1556" d="M49309.152,54274.465l-5.617-.289c.566-4.086.863-8.547,1.992-12.664h3.574Z" transform="translate(-27804.57 -37451.723)" fill-rule="evenodd" fill="url(#linear-gradient-12)"/>
    <g id="Group_2365" data-name="Group 2365" transform="translate(21494.59 16813.605)" clip-path="url(#clip-path-12)">
      <rect id="Rectangle_1966" data-name="Rectangle 1966" width="3.939" height="5.004" transform="translate(-0.06 -0.06)" fill="none"/>
    </g>
    <g id="Group_2366" data-name="Group 2366" transform="translate(21495.611 16814.676)" clip-path="url(#clip-path-13)">
      <rect id="Rectangle_1967" data-name="Rectangle 1967" width="2.341" height="2.976" transform="translate(-0.065 -0.051)" fill="none"/>
    </g>
    <path id="Path_1559" data-name="Path 1559" d="M44108.508,61246.023l15.625.969v-.969l-15.625-.914Z" transform="translate(-22619.545 -44421.879)" fill-rule="evenodd" fill="url(#linear-gradient-13)"/>
    <path id="Path_1560" data-name="Path 1560" d="M100361.008,49278.57l.047-13.129a7.752,7.752,0,0,1,3,6.605A9.427,9.427,0,0,1,100361.008,49278.57Z" transform="translate(-78763.703 -32465.277)" fill-rule="evenodd" fill="url(#linear-gradient-14)"/>
    <path id="Path_1561" data-name="Path 1561" d="M58026.566,34412.664c-1.211,0-2.484-.055-3.742-.1-1.273-.047-2.555-.1-3.828-.1-1.133,0-2.25.039-3.359.145a16.065,16.065,0,0,1,12.648-7.895c.234-.016.492-.02.734-.02a13.085,13.085,0,0,1,4.766.887,20.041,20.041,0,0,1-.086-2.84,20.843,20.843,0,0,1,7.555-15.09c-1.43,6.539,2.234,13.523-2.594,20.043C58035.543,34411.938,58031.254,34412.664,58026.566,34412.664Z" transform="translate(-36499.887 -17616.146)" fill-rule="evenodd" fill="url(#linear-gradient-15)"/>
    <path id="Path_1562" data-name="Path 1562" d="M56737.668,32191.361c-.156,0-.3,0-.461,0-7.422-.246-13.016-6.5-12.687-14.5a16.851,16.851,0,0,1,2.477-8.1,32.028,32.028,0,0,1,3.359-.152c1.273,0,2.555.047,3.82.1s2.523.1,3.75.1c4.68,0,8.977-.727,12.1-4.965,4.82-6.527,1.148-13.512,2.594-20.043a18.448,18.448,0,0,1,10.758-4.312c.3-.016.594-.023.883-.023a15.69,15.69,0,0,1,14.945,10.75,18.045,18.045,0,0,1,5.4-1.125c.3-.016.609-.02.914-.02,9.578,0,16.875,7.945,16.461,18.168a20.838,20.838,0,0,1-.687,4.48,8.167,8.167,0,0,1,2.68-.613c.141-.012.273-.012.406-.012a7.063,7.063,0,0,1,4.211,1.359l-.039,13.129a8.779,8.779,0,0,1-3.8,2.07l-7.477.414a15.217,15.217,0,0,0-3.727-.461,15.68,15.68,0,0,0-2.406.188c-.547.051-1.1.125-1.648.23a15.506,15.506,0,0,0-2.187.6l-48.914,2.73C56738.152,32191.357,56737.91,32191.361,56737.668,32191.361Zm22.844-33.914a2.378,2.378,0,0,0-2.375,2.375v17.5a2.377,2.377,0,0,0,2.391,2.379,2.3,2.3,0,0,0,1.438-.512l13.7-9.328a2.37,2.37,0,0,0-.391-3.992l-13.687-8.172A2.467,2.467,0,0,0,56760.512,32157.447Z" transform="translate(-35211.246 -15372.285)" fill-rule="evenodd" fill="url(#linear-gradient-16)"/>
    <path id="Path_1563" data-name="Path 1563" d="M86008.836,57155.75a6.792,6.792,0,0,1-3.039-.773,10.69,10.69,0,0,0,2.148-2.789,12.881,12.881,0,0,0,4.555,2.055A5.268,5.268,0,0,1,86008.836,57155.75Zm9.711-1.25c6.641-1.008,11.578-5.969,11.578-11.578h0a10.932,10.932,0,0,0-.125-1.586h0v-.008c-.922-5.484-6.32-9.156-12.523-9.156-.477,0-.969.023-1.453.07a15.738,15.738,0,0,1,2.406-.18,15.178,15.178,0,0,1,3.734.445c4.359,1.109,7.8,4.125,8.68,8.219v.008a.606.606,0,0,1,.055.234c0,.008.016.023.016.023a2.254,2.254,0,0,1,.031.227,8.187,8.187,0,0,1,.109,1.055,2.651,2.651,0,0,1,.031.43,6.43,6.43,0,0,1-.047.875c-.016.164-.023.3-.031.438-.031.094-.031.2-.062.289a10.8,10.8,0,0,1-3.18,6.023c-.039.047-.078.078-.109.117-.133.125-.281.25-.406.383a15.974,15.974,0,0,1-1.555,1.188c-.031.023-.094.055-.117.078-.3.211-.633.391-.969.594-.133.07-.3.141-.437.219-.1.047-.18.094-.281.148-.164.07-.3.133-.453.2-.1.047-.2.094-.312.133a16.739,16.739,0,0,1-4.133,1.086c-.1.008-.234.008-.336.016-.016,0-.055.016-.086.016Z" transform="translate(-64436.137 -40316.75)" fill-rule="evenodd" fill="url(#linear-gradient-17)"/>
    <path id="Path_1564" data-name="Path 1564" d="M84796.438,57205.895c.961,5.844,7.313,9.9,14.461,9.047,7.484-.914,13.008-6.852,11.953-13.234-1.07-6.391-8.211-10.336-15.625-8.875C84800.164,57194.23,84795.461,57200.043,84796.438,57205.895Z" transform="translate(-63228.977 -40377.094)" fill-rule="evenodd" fill="url(#linear-gradient-18)"/>
    <g id="Group_2367" data-name="Group 2367" transform="translate(21593.867 16824.586)" clip-path="url(#clip-path-14)">
      <rect id="Rectangle_1968" data-name="Rectangle 1968" width="0.141" height="0.107" transform="translate(-0.051 -0.039)" fill="none"/>
    </g>
  </g>
</svg>
