<svg xmlns="http://www.w3.org/2000/svg" width="25" height="24.999" viewBox="0 0 25 24.999">
  <path id="create_campaign" data-name="create campaign" d="M532.311,104.89v-1.078a3.134,3.134,0,0,0-3.125-3.125h-1.094a5.172,5.172,0,0,0-.734-1.937,6.3,6.3,0,0,0-10.406,0,5.174,5.174,0,0,0-.734,1.937h-1.094A3.134,3.134,0,0,0,512,103.812V108.5a1.666,1.666,0,0,0,.172.7,1.539,1.539,0,0,0,1.489.853,1.605,1.605,0,0,0,.6-.166,4.943,4.943,0,0,1,.859-.328,1.189,1.189,0,0,1,1.25.25,1.839,1.839,0,0,1,0,2.062,1.189,1.189,0,0,1-1.25.25,4.939,4.939,0,0,1-.859-.328,1.577,1.577,0,0,0-.6-.166,1.538,1.538,0,0,0-1.489.853,1.667,1.667,0,0,0-.172.7v4.687A3.134,3.134,0,0,0,515.125,121h14.062a3.134,3.134,0,0,0,3.125-3.125V116.8a6.123,6.123,0,0,0,0-11.905Zm-1.047,8.859a4.78,4.78,0,0,1-2.078-.562v4.687H515.125V115.3c.172.016.344.031.516.031a4.123,4.123,0,0,0,3.172-1.484,4.969,4.969,0,0,0,0-6,4.03,4.03,0,0,0-3.687-1.422v-2.609h4.687c-1.562-3.125.391-4.687,2.344-4.687s3.906,1.562,2.344,4.687h4.687V108.5a4.779,4.779,0,0,1,2.078-.562C534.748,107.937,534.748,113.749,531.264,113.749Z" transform="translate(-512 -96)" fill="#efaf4c" fill-rule="evenodd"/>
</svg>
