<svg xmlns="http://www.w3.org/2000/svg" width="25" height="25" viewBox="0 0 25 25"><path id="dashboard" fill="#efaf4c" fill-rule="evenodd" d="M711.813,611.125v4.688h-4.687v-4.687h4.688m0-3.125h-4.687A3.125,3.125,0,0,0,704,611.125v4.688a3.125,3.125,0,0,0,3.125,3.125h4.688a3.125,3.125,0,0,0,3.125-3.125v-4.687A3.125,3.125,0,0,0,711.813,608Zm14.063,3.125v4.688h-4.687v-4.687h4.688m0-3.125h-4.687a3.125,3.125,0,0,0-3.125,3.125v4.688a3.125,3.125,0,0,0,3.125,3.125h4.688A3.125,3.125,0,0,0,729,615.813v-4.687A3.125,3.125,0,0,0,725.875,608Zm-14.062,17.188v4.688h-4.687v-4.687h4.688m0-3.125h-4.687A3.125,3.125,0,0,0,704,625.188v4.688A3.125,3.125,0,0,0,707.125,633h4.688a3.125,3.125,0,0,0,3.125-3.125v-4.687a3.125,3.125,0,0,0-3.125-3.125Zm14.063,3.125v4.688h-4.687v-4.687h4.688m0-3.125h-4.687a3.125,3.125,0,0,0-3.125,3.125v4.688A3.125,3.125,0,0,0,721.188,633h4.688A3.125,3.125,0,0,0,729,629.875v-4.687a3.125,3.125,0,0,0-3.125-3.125Z" transform="translate(-704 -608)"/></svg>