<svg xmlns="http://www.w3.org/2000/svg" width="21.232" height="21.232" viewBox="0 0 21.232 21.232">
  <path id="delete_2" d="M83.905,547.981H78.6v-1.327A2.654,2.654,0,0,0,75.943,544H73.289a2.654,2.654,0,0,0-2.654,2.654v1.327H65.327a1.327,1.327,0,0,0,0,2.654h1.327v11.943a2.654,2.654,0,0,0,2.654,2.654H79.924a2.654,2.654,0,0,0,2.654-2.654V550.635h1.327a1.327,1.327,0,0,0,0-2.654Zm-10.616-1.327h2.654v1.327H73.289Zm6.635,15.924H69.308V550.635H79.924Z" transform="translate(-64 -544)" fill="#fff" fill-rule="evenodd"/>
</svg>
