<svg xmlns="http://www.w3.org/2000/svg" width="25.889" height="25.889" viewBox="0 0 25.889 25.889"><path id="delete_3" fill="#fff" fill-rule="evenodd" d="M120.271,548.854H113.8a4.854,4.854,0,1,0-9.708,0H97.618a1.618,1.618,0,1,0,0,3.236h1.618v14.563a3.236,3.236,0,0,0,3.236,3.236h12.945a3.236,3.236,0,0,0,3.236-3.236V552.09h1.618a1.618,1.618,0,1,0,0-3.236Zm-11.327-1.618a1.618,1.618,0,0,1,1.618,1.618h-3.236A1.618,1.618,0,0,1,108.945,547.236Zm6.472,19.417H102.472V552.09h12.945Zm-8.09-11.326a1.618,1.618,0,1,0,0,3.236h3.236a1.618,1.618,0,1,0,0-3.236Z" transform="translate(-96 -544)"/></svg>