<svg xmlns="http://www.w3.org/2000/svg" xmlns:xlink="http://www.w3.org/1999/xlink" width="42" height="42" viewBox="0 0 42 42">
  <defs>
    <filter id="Rectangle_119" x="0" y="0" width="42" height="42" filterUnits="userSpaceOnUse">
      <feOffset dy="3" input="SourceAlpha"/>
      <feGaussianBlur stdDeviation="3" result="blur"/>
      <feFlood flood-opacity="0.412"/>
      <feComposite operator="in" in2="blur"/>
      <feComposite in="SourceGraphic"/>
    </filter>
  </defs>
  <g id="delete_4" data-name="delete 4" transform="translate(8.843 6.247)">
    <g id="Group_778" data-name="Group 778" transform="translate(0 0)">
      <g transform="matrix(1, 0, 0, 1, -8.84, -6.25)" filter="url(#Rectangle_119)">
        <rect id="Rectangle_119-2" data-name="Rectangle 119" width="24" height="24" rx="8" transform="translate(9 6)" fill="#966fd6"/>
      </g>
      <path id="delete_2" d="M75.257,546.251h-3v-.75a1.5,1.5,0,0,0-1.5-1.5h-1.5a1.5,1.5,0,0,0-1.5,1.5v.75h-3a.75.75,0,1,0,0,1.5h.75v6.754a1.5,1.5,0,0,0,1.5,1.5h6a1.5,1.5,0,0,0,1.5-1.5v-6.754h.75a.75.75,0,0,0,0-1.5Zm-6-.75h1.5v.75h-1.5Zm3.752,9.006H67v-6.754h6Z" transform="translate(-58.345 -538.345)" fill="#fff" fill-rule="evenodd"/>
    </g>
  </g>
</svg>
