<svg xmlns="http://www.w3.org/2000/svg" xmlns:xlink="http://www.w3.org/1999/xlink" width="42" height="42" viewBox="0 0 42 42">
  <defs>
    <filter id="Rectangle_119" x="0" y="0" width="42" height="42" filterUnits="userSpaceOnUse">
      <feOffset dy="3" input="SourceAlpha"/>
      <feGaussianBlur stdDeviation="3" result="blur"/>
      <feFlood flood-opacity="0.412"/>
      <feComposite operator="in" in2="blur"/>
      <feComposite in="SourceGraphic"/>
    </filter>
  </defs>
  <g id="download_4" data-name="download 4" transform="translate(9 6.247)">
    <g transform="matrix(1, 0, 0, 1, -9, -6.25)" filter="url(#Rectangle_119)">
      <rect id="Rectangle_119-2" data-name="Rectangle 119" width="24" height="24" rx="8" transform="translate(9 6)" fill="#966fd6"/>
    </g>
    <path id="download_1" d="M619.634,713.307a.776.776,0,0,0-.776.776v.776h-9.307v-.776a.776.776,0,0,0-1.551,0v1.551a.776.776,0,0,0,.776.776h10.858a.776.776,0,0,0,.776-.776v-1.551A.776.776,0,0,0,619.634,713.307Zm-5.977-.227a.775.775,0,0,0,1.1,0l2.327-2.327a.776.776,0,1,0-1.1-1.1l-1,1v-5.883a.776.776,0,1,0-1.551,0v5.883l-1-1a.776.776,0,1,0-1.1,1.1Z" transform="translate(-602.345 -698.345)" fill="#fff" fill-rule="evenodd"/>
  </g>
</svg>
