<svg xmlns="http://www.w3.org/2000/svg" width="18.742" height="18.742" viewBox="0 0 18.742 18.742">
  <path id="download_1" d="M625.571,718.057a1.171,1.171,0,0,0-1.171,1.171V720.4H610.343v-1.171a1.171,1.171,0,0,0-2.343,0v2.343a1.171,1.171,0,0,0,1.171,1.171h16.4a1.171,1.171,0,0,0,1.171-1.171v-2.343A1.171,1.171,0,0,0,625.571,718.057Zm-9.028-.343a1.171,1.171,0,0,0,1.656,0l3.514-3.514a1.171,1.171,0,1,0-1.656-1.656l-1.514,1.515v-8.886a1.171,1.171,0,0,0-2.343,0v8.886l-1.515-1.515a1.171,1.171,0,1,0-1.656,1.656Z" transform="translate(-608 -704)" fill="#fff" fill-rule="evenodd"/>
</svg>
