<svg id="edit" xmlns="http://www.w3.org/2000/svg" width="7.971" height="7.971" viewBox="0 0 7.971 7.971">
  <path id="Path_93" data-name="Path 93" d="M6.975,3.82V4.982h-1a1,1,0,0,0-1,1v1H1.495a.5.5,0,0,1-.5-.5V1.495a.5.5,0,0,1,.5-.5H4.484a.5.5,0,0,0,.5-.5h0a.5.5,0,0,0-.5-.5H1.495A1.5,1.5,0,0,0,0,1.495V6.477A1.5,1.5,0,0,0,1.495,7.971h3.98a1.5,1.5,0,0,0,1.057-.437l1-1a1.5,1.5,0,0,0,.438-1.057V3.82a.5.5,0,0,0-.5-.5h0A.5.5,0,0,0,6.975,3.82Z" fill="#fff"/>
  <path id="Path_94" data-name="Path 94" d="M9.249,1.2,5.1,5.347a.332.332,0,0,0-.1.235v1a.332.332,0,0,0,.332.332h1a.332.332,0,0,0,.235-.1l4.1-4.1a1.122,1.122,0,0,0,.316-1.053A1.036,1.036,0,0,0,9.249,1.2Z" transform="translate(-3.339 -0.6)" fill="#fff"/>
</svg>
