<svg xmlns="http://www.w3.org/2000/svg" width="30" height="30" viewBox="0 0 30 30">
  <g id="edit" transform="translate(-1425 -442)">
    <path id="pen_2" d="M78.993,432H65.007a1,1,0,0,1-1-1V417a1,1,0,0,1,1-1H71a1,1,0,0,1,0,2H66v12H77.994v-5a1,1,0,0,1,2,0v6a1,1,0,0,1-1,1Zm-2-14,1,1L71,426H70v-1l6.993-7Zm0-2a1.989,1.989,0,0,0-1.413.586l-6.993,7A2,2,0,0,0,68,425v1a2,2,0,0,0,2,2h1a2,2,0,0,0,1.413-.586l6.993-7a2,2,0,0,0,0-2.828l-1-1A1.989,1.989,0,0,0,77,416h0Z" transform="translate(1367.992 33)" fill="#66329e" fill-rule="evenodd"/>
    <g id="Rectangle_1922" data-name="Rectangle 1922" transform="translate(1425 442)" fill="none" stroke="#efaf4c" stroke-width="2">
      <rect width="30" height="30" rx="10" stroke="none"/>
      <rect x="1" y="1" width="28" height="28" rx="9" fill="none"/>
    </g>
  </g>
</svg>
