<svg xmlns="http://www.w3.org/2000/svg" width="26.153" height="26.174" viewBox="0 0 26.153 26.174">
  <path id="edit_2" data-name="edit 2" d="M88.523,442.174H65.643a1.636,1.636,0,0,1-1.636-1.636v-22.9A1.636,1.636,0,0,1,65.643,416h9.8a1.636,1.636,0,1,1,0,3.272h-8.18V438.9H86.888v-8.18a1.636,1.636,0,0,1,3.272,0v9.815a1.636,1.636,0,0,1-1.638,1.636Zm-3.272-22.9,1.636,1.636-11.44,11.451H73.811v-1.636l11.44-11.451Zm0-3.272a3.254,3.254,0,0,0-2.312.959L71.5,428.41a3.272,3.272,0,0,0-.96,2.313v1.636a3.272,3.272,0,0,0,3.272,3.272h1.636a3.272,3.272,0,0,0,2.312-.959L89.2,423.221a3.272,3.272,0,0,0,0-4.626l-1.636-1.636A3.254,3.254,0,0,0,85.254,416h0Z" transform="translate(-64.007 -416)" fill="#fff" fill-rule="evenodd"/>
</svg>
