<svg xmlns="http://www.w3.org/2000/svg" width="24.024" height="24.025" viewBox="0 0 24.024 24.025"><path id="exit" fill="#fff" d="M17.44,18.394v1.877a3.758,3.758,0,0,1-3.754,3.754H4.254A3.758,3.758,0,0,1,.5,20.271V3.754A3.758,3.758,0,0,1,4.254,0h9.432A3.758,3.758,0,0,1,17.44,3.754V5.631a.938.938,0,0,1-1.877,0V3.754a1.879,1.879,0,0,0-1.877-1.877H4.254A1.879,1.879,0,0,0,2.377,3.754V20.271a1.879,1.879,0,0,0,1.877,1.877h9.432a1.879,1.879,0,0,0,1.877-1.877V18.394a.938.938,0,0,1,1.877,0Zm6.4-7.994-2.1-2.1a.938.938,0,1,0-1.327,1.327L21.9,11.121H10.636a.938.938,0,1,0,0,1.877H21.9l-1.495,1.495a.938.938,0,1,0,1.327,1.327l2.1-2.1a2.349,2.349,0,0,0,0-3.318Zm0,0" transform="translate(-0.5)"/></svg>