<svg xmlns="http://www.w3.org/2000/svg" width="12" height="12" viewBox="0 0 12 12"><path id="expand" fill="#f7fafc" d="M14,2.545V5.273a.547.547,0,0,1-.545.545h0a.547.547,0,0,1-.545-.545v-1.4L9.745,7.032a.545.545,0,0,1-.764-.777l3.15-3.164h-1.4a.545.545,0,1,1,0-1.091h2.727a.5.5,0,0,1,.382.164A.5.5,0,0,1,14,2.545Zm-.545,7.636a.547.547,0,0,0-.545.545v1.4L9.8,9.05a.559.559,0,0,0-.8.777l3.082,3.082h-1.4a.545.545,0,0,0,0,1.091H13.4a.555.555,0,0,0,.409-.164A.573.573,0,0,0,14,13.455V10.727A.547.547,0,0,0,13.455,10.182ZM6.2,9.023,3.091,12.132v-1.4a.547.547,0,0,0-.545-.545h0A.547.547,0,0,0,2,10.727v2.727a.5.5,0,0,0,.164.382.546.546,0,0,0,.4.164H5.286a.545.545,0,1,0,0-1.091H3.868L6.977,9.8a.556.556,0,0,0,0-.777A.543.543,0,0,0,6.2,9.023ZM3.868,3.145h1.4a.545.545,0,0,0,0-1.091H2.545a.5.5,0,0,0-.382.164A.5.5,0,0,0,2,2.6V5.327a.545.545,0,0,0,1.091,0V3.909l3.15,3.15A.545.545,0,1,0,7,6.282Z" transform="translate(-2 -2)"/></svg>