<svg xmlns="http://www.w3.org/2000/svg" width="30.5" height="30.5" viewBox="0 0 30.5 30.5"><path id="facebook" fill="#66329e" d="M26.926,0H3.574A3.578,3.578,0,0,0,0,3.574V26.926A3.578,3.578,0,0,0,3.574,30.5H26.926A3.578,3.578,0,0,0,30.5,26.926V3.574A3.578,3.578,0,0,0,26.926,0Zm1.191,26.926a1.193,1.193,0,0,1-1.191,1.191H19.9v-8.7h3.814l.444-3.693H19.9V11.735a1.748,1.748,0,0,1,1.787-1.787h2.681V6.493a26.5,26.5,0,0,0-2.681-.238,5.516,5.516,0,0,0-3.821,1.608,5.424,5.424,0,0,0-1.66,3.883v3.981H12.331V19.42H16.2v8.7H3.574a1.193,1.193,0,0,1-1.191-1.191V3.574A1.193,1.193,0,0,1,3.574,2.383H26.926a1.193,1.193,0,0,1,1.191,1.191Zm0,0"/></svg>