<svg xmlns="http://www.w3.org/2000/svg" width="12.194" height="12.194" viewBox="0 0 12.194 12.194">
  <path id="full_screen" data-name="full screen" d="M14.194,2.554V5.326a.556.556,0,0,1-.554.554h0a.556.556,0,0,1-.554-.554V3.9L9.871,7.113a.554.554,0,0,1-.776-.79l3.2-3.215H10.868a.554.554,0,0,1,0-1.109H13.64a.5.5,0,0,1,.388.166A.5.5,0,0,1,14.194,2.554Zm-.554,7.76a.556.556,0,0,0-.554.554V12.3L9.926,9.164a.568.568,0,0,0-.818.79l3.132,3.132H10.813a.554.554,0,0,0,0,1.109h2.771A.564.564,0,0,0,14,14.028a.582.582,0,0,0,.194-.388V10.868A.556.556,0,0,0,13.64,10.314ZM6.268,9.136,3.109,12.3V10.868a.556.556,0,0,0-.554-.554h0A.556.556,0,0,0,2,10.868V13.64a.5.5,0,0,0,.166.388.555.555,0,0,0,.4.166H5.339a.554.554,0,1,0,0-1.109H3.9L7.058,9.926a.565.565,0,0,0,0-.79A.552.552,0,0,0,6.268,9.136ZM3.9,3.164H5.326a.554.554,0,0,0,0-1.109H2.554a.5.5,0,0,0-.388.166A.5.5,0,0,0,2,2.61V5.381a.554.554,0,0,0,1.109,0V3.94l3.2,3.2a.554.554,0,0,0,.776-.79Z" transform="translate(-2 -2)" fill="#f7fafc"/>
</svg>
