<svg xmlns="http://www.w3.org/2000/svg" width="40" height="40" viewBox="0 0 40 40">
  <g id="Group_2246" data-name="Group 2246" transform="translate(-1005 -483)">
    <g id="Ellipse_40" data-name="Ellipse 40" transform="translate(1005 483)" fill="#fff" stroke="#966fd6" stroke-width="2">
      <circle cx="20" cy="20" r="20" stroke="none"/>
      <circle cx="20" cy="20" r="19" fill="none"/>
    </g>
    <path id="profile_close_1" d="M335.707,363.306a11.392,11.392,0,0,0-2.865-1.537,5.648,5.648,0,0,0-3.238-9.726,5.2,5.2,0,0,0-1.336,0,5.649,5.649,0,0,0-3.239,9.726,11.385,11.385,0,0,0-2.864,1.537,2.858,2.858,0,0,0,0,4.607,11.381,11.381,0,0,0,13.541,0,2.86,2.86,0,0,0,0-4.607Zm-10.181-5.635a3.391,3.391,0,0,1,3.062-3.38,2.755,2.755,0,0,1,.705,0,3.4,3.4,0,1,1-3.768,3.38Zm8.827,8.42a9.1,9.1,0,0,1-10.833,0,.593.593,0,0,1,0-.963,9.106,9.106,0,0,1,10.833,0,.594.594,0,0,1,0,.963Z" transform="translate(696 142)" fill="#966fd6" fill-rule="evenodd"/>
  </g>
</svg>
