<svg xmlns="http://www.w3.org/2000/svg" width="24" height="24" viewBox="0 0 24 24">
  <g id="Group_2370" data-name="Group 2370" transform="translate(-519 -592)">
    <rect id="Rectangle_1971" data-name="Rectangle 1971" width="24" height="24" rx="9" transform="translate(519 592)" fill="#fff"/>
    <path id="pinstrest" d="M137.554,101.472c-4.512,0-6.786,3.131-6.786,5.741a3.52,3.52,0,0,0,1.944,3.511.45.45,0,0,0,.162.033.318.318,0,0,0,.314-.264c.045-.161.148-.567.195-.738a.436.436,0,0,0-.136-.511,2.6,2.6,0,0,1-.628-1.8,4.429,4.429,0,0,1,4.677-4.4c2.55,0,3.951,1.508,3.951,3.521,0,2.649-1.212,4.886-3.01,4.886a1.436,1.436,0,0,1-1.5-1.771,19.207,19.207,0,0,0,.839-3.26,1.247,1.247,0,0,0-1.281-1.379c-1.017,0-1.833,1.016-1.833,2.379a3.446,3.446,0,0,0,.3,1.454s-1.038,4.261-1.22,5.008a9.966,9.966,0,0,0-.029,3.491.118.118,0,0,0,.122.1.128.128,0,0,0,.1-.049,9.7,9.7,0,0,0,1.715-3.007c.118-.409.668-2.525.668-2.525a2.749,2.749,0,0,0,2.321,1.144c3.052,0,5.123-2.691,5.123-6.3C143.567,104.011,141.182,101.472,137.554,101.472Z" transform="translate(393.832 494.527)" fill="#66329e"/>
  </g>
</svg>
