<svg xmlns="http://www.w3.org/2000/svg" width="24" height="24" viewBox="0 0 24 24">
  <g id="Group_2371" data-name="Group 2371" transform="translate(-487 -620)">
    <rect id="Rectangle_1972" data-name="Rectangle 1972" width="24" height="24" rx="9" transform="translate(487 620)" fill="#fff"/>
    <g id="linkedin" transform="translate(-671.516 -294.346)">
      <path id="Path_1497" data-name="Path 1497" d="M23.264,27A1.264,1.264,0,0,0,22,28.264v9.478a1.264,1.264,0,0,0,2.527,0V28.264A1.264,1.264,0,0,0,23.264,27Z" transform="translate(1141.882 896.187)" fill="#66329e"/>
      <path id="Path_1498" data-name="Path 1498" d="M35.055,28.264H33.791a3.776,3.776,0,0,0-1.264.221v-.221a1.264,1.264,0,0,0-2.527,0v9.478a1.264,1.264,0,0,0,2.527,0V32.055a1.265,1.265,0,0,1,1.264-1.264h1.264a1.265,1.265,0,0,1,1.264,1.264v5.687a1.264,1.264,0,1,0,2.527,0V32.055A3.8,3.8,0,0,0,35.055,28.264Z" transform="translate(1138.937 896.187)" fill="#66329e"/>
      <path id="Path_1499" data-name="Path 1499" d="M22.9,18a1.9,1.9,0,1,0,1.9,1.9A1.9,1.9,0,0,0,22.9,18Z" transform="translate(1142.25 899.5)" fill="#66329e"/>
    </g>
  </g>
</svg>
