<svg xmlns="http://www.w3.org/2000/svg" width="518.128" height="396.555" viewBox="0 0 518.128 396.555">
  <g id="Layer_2" data-name="Layer 2" transform="translate(-0.001 -0.001)">
    <g id="Layer_1" data-name="Layer 1" transform="translate(0.001 0.001)">
      <g id="Group_11" data-name="Group 11" transform="translate(0 0)" opacity="0.15">
        <path id="Path_9" data-name="Path 9" d="M467.946,457.375c55.93-42.528,80.842-160.456-9.976-218.283-60.121-38.275-97.51-16.44-165.154-41.76-82.572-30.9-94.878-124.277-195.3-78.331C44.289,143.33,7.41,211.91.914,289.853c-6.36,76.331,20.693,128.7,75.975,164.543C206.71,459.918,336.793,458.919,467.946,457.375Z" transform="translate(-0.001 -74.945)" fill="#794585"/>
        <path id="Path_10" data-name="Path 10" d="M800.28,46.995c-8.45,33.918,22.922,67.5,55.972,81.416s70.951,12.273,106.357,5.631c15.279-2.863,30.984-6.891,42.851-16.63s18.752-26.654,12.247-40.308c-5.741-12.048-19.715-18.222-33.038-21.39s-27.481-4.469-39.336-11.135c-11.263-6.325-19.238-16.793-29.028-25.086-18.1-15.3-43.5-22.884-67-18.041S807.462,18.163,800.28,46.995Z" transform="translate(-562.11 -0.001)" fill="#794585"/>
      </g>
      <path id="Path_11" data-name="Path 11" d="M834.034,957.921a171.047,171.047,0,0,1,19.057-53.02q3.975-7.063,8.625-13.779c1.461-2.11-2.178-4.057-3.631-1.956a173.588,173.588,0,0,0-24.517,52.163,154.992,154.992,0,0,0-3.474,15.59,1.926,1.926,0,0,0,1.426,2.318,2.075,2.075,0,0,0,2.513-1.316Z" transform="translate(-584.044 -624.997)" fill="#13375b"/>
      <path id="Path_12" data-name="Path 12" d="M984.179,907.536c2.881,2.457,4.324,5.9,5.545,9.253a100.006,100.006,0,0,1,3.571,12.4,164.466,164.466,0,0,1,3.26,25.044c.317,4.867.519,9.742.72,14.615.1,2.528,4.375,2.543,4.271,0-.726-17.57-1.482-35.516-7.487-52.356-1.5-4.212-3.26-8.628-7-11.609a2.217,2.217,0,0,0-2.878,0,1.8,1.8,0,0,0,0,2.667Z" transform="translate(-692.07 -636.316)" fill="#13375b"/>
      <path id="Path_13" data-name="Path 13" d="M854.315,712.191H797.368c-4.069,0-7.368,3.032-7.368,6.778h0a7.356,7.356,0,0,0,7.356,7.113l66.248,2.407c3.776,0,8-5.095,8.892-8.465l17.089-63.189c1.052-3.889-1.559-7.816-5.8-8.726h0a7.857,7.857,0,0,0-9.33,5.213l-15.442,55.524A4.794,4.794,0,0,1,854.315,712.191Z" transform="translate(-555.857 -455.887)" fill="#7354f0"/>
      <path id="Path_14" data-name="Path 14" d="M725.489,647.557l-.791,2.765L729,652.086l-.658,4.182,3.005,1.847-.934,1.52-4.022-2.469.625-3.963-4.481-1.835,1.192-4.158Z" transform="translate(-508.391 -455.388)" fill="#f7cc7f"/>
      <path id="Path_15" data-name="Path 15" d="M1072.427,582.4l-3.948.865-2.5-3.278-4.357,1.283-1.586-4.315-4.991,1.233-1.95-3.791-5,.4.154,1.891,3.735-.3,2.057,4,4.8-1.185,1.609,4.386,4.81-1.417,2.439,3.2,3.661-.8,1.162,2.439,1.713-.818Z" transform="translate(-737.461 -404.158)" fill="#f7cc7f"/>
      <path id="Path_16" data-name="Path 16" d="M768.808,634.781l2.421-1.583-1.034-1.589-3.912,2.555,2.46,4.369-2.573,3.094,1.6,3.388-2.113,1.68,1.18,1.485,3.293-2.617-1.731-3.654,2.635-3.171Z" transform="translate(-538.731 -444.411)" fill="#f7cc7f"/>
      <rect id="Rectangle_20" data-name="Rectangle 20" width="75.459" height="24.864" transform="translate(250.66 249.146) rotate(180)" fill="#86b1f2"/>
      <rect id="Rectangle_21" data-name="Rectangle 21" width="56.437" height="97.003" transform="translate(200.37 319.863) rotate(180)" fill="#fae0b2"/>
      <rect id="Rectangle_22" data-name="Rectangle 22" width="7.979" height="112.901" transform="translate(255.245 332.305) rotate(180)" fill="#184655"/>
      <rect id="Rectangle_23" data-name="Rectangle 23" width="5.726" height="12.682" transform="translate(173.093 332.308) rotate(180)" fill="#184655"/>
      <rect id="Rectangle_24" data-name="Rectangle 24" width="5.726" height="12.478" transform="translate(141.345 332.296) rotate(180)" fill="#184655"/>
      <path id="Path_17" data-name="Path 17" d="M594.369,594.162a1.949,1.949,0,0,0,.409-.044,2.552,2.552,0,0,0,1.725-2.985s-9.351-53.989-10.077-54.268c-.231-.086-.783-1.186-.8-1.186a1.954,1.954,0,0,0-.341.045,2.551,2.551,0,0,0-1.725,2.984l8.681,53.379A2.291,2.291,0,0,0,594.369,594.162Z" transform="translate(-410.573 -376.913)" fill="#355389"/>
      <path id="Path_18" data-name="Path 18" d="M618.357,540.719l8.651,52.048-26.838.37L590.58,535.66l24.41,1.357C616.834,537.1,618.126,539.3,618.357,540.719Z" transform="translate(-415.542 -376.899)" fill="#466eb6"/>
      <path id="Path_19" data-name="Path 19" d="M749.14,724.55v.089h0c0,1.66-.966,3.029-2.175,3.032l-34.084.086c-1.209,0-2.187-1.34-2.19-3v-.207Z" transform="translate(-500.054 -509.806)" fill="#355389"/>
      <path id="Path_20" data-name="Path 20" d="M670.426,724.54v.092h0a3.168,3.168,0,0,1-3.26,3.053l-51.055.107a3.17,3.17,0,0,1-3.281-3.041v-.21Z" transform="translate(-431.198 -509.799)" fill="#355389"/>
      <path id="Path_21" data-name="Path 21" d="M716.208,1039.087c-2.075,3.853-7.146,16.577-7.338,17.54a4.538,4.538,0,0,1-1.014,1.384c-6.547.655-11.34-2.86-14.976-6.328a48.856,48.856,0,0,0,9.449-.777c1.992-.341,1.778-6.4,2.917-13.207C707.009,1038.509,713.636,1036.76,716.208,1039.087Z" transform="translate(-487.522 -730.143)" fill="#f7a491"/>
      <path id="Path_22" data-name="Path 22" d="M687.858,1088.056c-.542,2.128-2.8,6.055-3.234,5.928-.519-.133-19.858-7.075-21.512-9.843-1.025-1.71,4.259-1.778,8.512-1.574C675.262,1086.05,686.741,1088.608,687.858,1088.056Z" transform="translate(-466.487 -761.655)" fill="#355389"/>
      <path id="Path_23" data-name="Path 23" d="M805.681,814.39l-44.967,2.59-16.393,56.769L731.28,871.2s7.312-58.734,11.559-63.648c11.615-13.405,52.2-11.82,52.2-11.82Z" transform="translate(-514.541 -559.85)" fill="#3c8f7c"/>
      <path id="Path_24" data-name="Path 24" d="M826.513,1049.88c-.166,2.617-.765,5.786-.646,8.838a24.346,24.346,0,0,0,.931,4.923,4.725,4.725,0,0,1-.347,1.68c-5.679,3.325-11.5,2.128-16.251.492a16.984,16.984,0,0,0,6.274-4.505c1.369-1.482.394-5.945-1.411-12.608C817.008,1048.7,823.205,1048.836,826.513,1049.88Z" transform="translate(-570.07 -737.883)" fill="#f7a491"/>
      <path id="Path_25" data-name="Path 25" d="M837.58,779.479s-41.935.788-52.475,16.215c-7.887,11.541,11.752,68.465,11.752,68.465l11.814-2.178s-2.721-38.574-4.692-51.3c-.332-2.158-1.867-8.527-1.867-8.527a74.416,74.416,0,0,0,14.979,2.182c13.385.856,32.857.628,37.048-1.556,7.264-3.779,10.308-14.022,7.113-20.705S837.58,779.479,837.58,779.479Z" transform="translate(-551.099 -547.583)" fill="#50bfa5"/>
      <path id="Path_26" data-name="Path 26" d="M806.736,1098.82c.738,1.349,1.111,6.58.667,6.657-.528.095-22.741,1.34-25.409-.483-1.645-1.126,4.2-2.339,8.159-3.915C794.9,1102.726,806.5,1100.266,806.736,1098.82Z" transform="translate(-550.024 -773.148)" fill="#355389"/>
      <path id="Path_27" data-name="Path 27" d="M765.87,688.22s-12.214,3.053-18.319,4.994a71.038,71.038,0,0,1-13.88,2.5l-6.571,3.471,14.063.415,32.756-2.914,2.774-7.641Z" transform="translate(-511.6 -484.243)" fill="#f48c7f"/>
      <path id="Path_28" data-name="Path 28" d="M856.521,604.668l-5.83.833s-2.075.418-3.746,9.576S842.92,629.1,842.92,629.1l14.295,5.691C867.662,620.358,874.826,603.266,856.521,604.668Z" transform="translate(-593.093 -425.398)" fill="#b75742"/>
      <path id="Path_29" data-name="Path 29" d="M869.005,576.171c-3.723.649-3.948,3.657-3.948,3.657l-3.814,15.889s-.35,6.734.424,9.309c1.5,5.009,4.541,6.986,9.517,8.687,6.6,2.258,9.206,7.946,12.051,11.263,4.938,5.759.919,12.65.919,12.65l34.5,4.843s.468-6.734-7.347-25.658C904.524,600.382,888.255,572.8,869.005,576.171Z" transform="translate(-605.93 -405.205)" fill="#f47458"/>
      <path id="Path_30" data-name="Path 30" d="M775.132,579.6c-4.232-4.647-14.988,1.111-11.657,16.518.021.1,1.239,16.274.211,18.331-.622,1.248-15.611.622-24.683,2.531,0,0-9.81-3.64-13.254-3.885-2.552-.181-8.628,1.758-8.628,1.758s-7.828,5.776-6.731,6.74c1.5,1.3,5.181-4.4,8.281-4.4,0,0-5.655,4.366-3.909,4.464s4.149-1.209,5.412-1.6,5.9,1.944,9.991,2.43a63.708,63.708,0,0,1,6.455.347c3.1.412,6.7,1.565,10.871,1.758,11.2.522,23.883,1.758,27.021-1.4C776.851,620.84,782.254,587.429,775.132,579.6Z" transform="translate(-499.768 -406.718)" fill="#f7a491"/>
      <path id="Path_31" data-name="Path 31" d="M901.09,612.107a70.66,70.66,0,0,1-13.7-3.477s-.563-13.551-.614-14.063c-.439-7.078-.172-12.774,2.792-16.446a5.741,5.741,0,0,1,4.982-2.291A7.355,7.355,0,0,1,900.1,578.2c4.772,6.094,2.946,23.82,1.455,33.568l-.062.4Z" transform="translate(-623.833 -405.164)" fill="#b75742"/>
      <path id="Path_32" data-name="Path 32" d="M865.856,416.812c.528-4.564.522-21.912,11.064-21.553s10.608,11.962,19.146-2.021c7.911-12.955,22.525-4.582,21.165,6.138a9.508,9.508,0,0,1,4.318,1.544c4.612,3.065,5.726,9.484,2.487,14.372-.513.777-.471,1.648-1.123,2.247.323,4.843-1.506,9.961-6.088,14.644-12.51,12.789-19.345-4.472-26.082-4.9s-3.423,5.531-9.887,8.462-10.851,1.011-18.047-11.7l-1.719-3.453A3.978,3.978,0,0,0,865.856,416.812Z" transform="translate(-605.878 -272.055)" fill="#b75742"/>
      <path id="Path_33" data-name="Path 33" d="M801.556,472.723c7.409,5.178,9.057,18.361,2.229,24.656-4.446,4.09-13.18,4.8-18.035.744-7.872-6.583-8.752-14.031-5.96-19.878C783.394,470.705,795.433,468.452,801.556,472.723Z" transform="translate(-547.656 -331.109)" fill="#b75742"/>
      <path id="Path_34" data-name="Path 34" d="M843.034,538.07a21.2,21.2,0,0,0,10.335,11.191c.99.5-11.233,20.154-11.236,19.926-.036-1.518,2.113-10.374,1.589-11.458C842.3,554.75,834,541.17,834,541.17Z" transform="translate(-586.817 -378.595)" fill="#f7a491"/>
      <path id="Path_35" data-name="Path 35" d="M838.416,539.656,834,541.17h0c0,.015,3.646,5.969,6.521,10.851a9.619,9.619,0,0,0,2.641-3.7,14.1,14.1,0,0,0,.889-8.047,14,14,0,0,1-1-2.2Z" transform="translate(-586.817 -378.595)" fill="#f47458"/>
      <path id="Path_36" data-name="Path 36" d="M794.546,491.329a12.163,12.163,0,0,1,8.266-.062c4.306,1.612,12.045,12.084,8.059,21.268s-13.521,4.621-17.753-1.2S784.67,496.723,794.546,491.329Z" transform="translate(-554.796 -345.17)" fill="#f7a491"/>
      <path id="Path_37" data-name="Path 37" d="M811.865,490.885c-3.414-5.928-7.158-9.4-12.419-8.053s-9.979,2.25-10.347,8.441l-.379,1.052s7.62-3.72,10.779-.809,9.781,3.853,10.67,5.883,3.056,5.676,3.056,5.676l.394-2.27S815.276,496.81,811.865,490.885Z" transform="translate(-554.957 -339.525)" fill="#b75742"/>
      <path id="Path_38" data-name="Path 38" d="M838.9,512.437c.711,1.838,2.321,2.9,3.6,2.371s1.728-2.448,1.014-4.289-2.321-2.9-3.592-2.371S838.186,510.6,838.9,512.437Z" transform="translate(-590.027 -357.446)" fill="#f7a491"/>
      <rect id="Rectangle_25" data-name="Rectangle 25" width="91.778" height="97.003" transform="translate(204.741 319.863) rotate(180)" fill="#86b1f2"/>
      <rect id="Rectangle_26" data-name="Rectangle 26" width="7.581" height="111.642" transform="translate(211.039 332.352) rotate(180)" fill="#184655"/>
      <rect id="Rectangle_27" data-name="Rectangle 27" width="4.283" height="111.642" transform="translate(115.242 333.191) rotate(180)" fill="#184655"/>
      <rect id="Rectangle_28" data-name="Rectangle 28" width="171.15" height="6.87" rx="3.435" transform="translate(264.24 224.738) rotate(180)" fill="#184655"/>
      <path id="Path_39" data-name="Path 39" d="M645.95,1121.795c0-1.141-.415-2.075-.925-2.075H230.53c-.619,0-1.12.922-1.12,2.075s.5,2.075,1.12,2.075H645.025C645.535,1123.869,645.95,1122.945,645.95,1121.795Z" transform="translate(-161.417 -787.854)" fill="#86b1f2"/>
      <path id="Path_40" data-name="Path 40" d="M270.525,751.328s35.824-10.75,37.267-10.483-4.212,12.211-3.509,16.073c.225,1.239-30.661,18.9-37.525,17.6-7.484-1.42-36.254-26.168-39.324-31.532C224,736.983,218,722.025,222,716.39c1.823-2.567,6.224-5.987,9.3-5.264C243.492,713.984,256.651,735.581,270.525,751.328Z" transform="translate(-155.271 -500.292)" fill="#6038ff"/>
      <path id="Path_41" data-name="Path 41" d="M271.188,791.014c-.237-1.064-7.67-18.352-8.047-20.115C258.2,747.858,239.2,714.165,230.4,709.844c-1.423-.711-11.58-.774-11.58-.774l5.249,2.6c5.981,5.462,12.676,11.781,16.944,18.835,12.383,20.45,20.818,67.558,21.932,67.475C264.22,797.872,271.71,793.376,271.188,791.014Z" transform="translate(-153.966 -498.914)" fill="#7354f0"/>
      <path id="Path_42" data-name="Path 42" d="M148.606,849.882c-17.395-10.116-20.13-34-27.484-46.829-9-15.708-22.282-17.418-45.142,11.052-28.023,34.908-13.764,105.127,24.932,127.632l92.8-.187c19.12-6.882,27.614-16.977,34.481-33.788C258.722,832.991,187.3,872.383,148.606,849.882Z" transform="translate(-43.148 -557.141)" fill="#e15fff"/>
      <path id="Path_43" data-name="Path 43" d="M490.325,1249.34s-.646,11.435-.649,11.458c-.24,1.452-1.186,5.039-1.186,6.357,0,4.959,22.06-4.209,17.116-6.4-.448-.2-3.488-2.827-3.634-4.514-.228-2.6-.107-6.737-.107-6.737Z" transform="translate(-343.71 -879.056)" fill="#f7a491"/>
      <path id="Path_44" data-name="Path 44" d="M501.991,1286.624a79.428,79.428,0,0,1-7.83,1.9c-2.653.38-6.15-2.816-8.026-1.953-1.532.705-2.131,5.815-2.335,8.405a1.461,1.461,0,0,0,1.378,1.574c6.1.317,29.295,1.387,35.314-.356C523.613,1295.287,512.581,1290.148,501.991,1286.624Z" transform="translate(-340.406 -905.146)" fill="#07345a"/>
      <path id="Path_45" data-name="Path 45" d="M660.625,1210.174a79.529,79.529,0,0,1-7.833,1.9c-2.653.379-6.15-2.816-8.026-1.953-1.532.705-2.128,5.815-2.336,8.406a1.812,1.812,0,0,0,1.482,1.829c6.769.667,29.2,1.132,35.219-.611C682.246,1218.837,671.212,1213.707,660.625,1210.174Z" transform="translate(-452.022 -851.355)" fill="#07345a"/>
      <path id="Path_46" data-name="Path 46" d="M630.49,1160.266s6.2,8.726,6.784,10.652,14.956,3.34,14.956-1.381c0-.062-4.446-3.687-5.717-5.335-2.1-2.762-7.015-11.992-7.015-11.992Z" transform="translate(-443.624 -810.714)" fill="#f7a491"/>
      <path id="Path_47" data-name="Path 47" d="M120.851,534.918s-7-4.742-9.961,3.557a4.645,4.645,0,0,0-5.631,2.866s-6.781-.51-6.224,9.339c0,0-3.408.1-2.982,4.09a9.846,9.846,0,0,0,2.964,6.138s-1.535,1.778.089,5.178a4.534,4.534,0,0,0,4,2.789s1.8,4.976,4.369,6.02a7.461,7.461,0,0,0,5.424-.356s1.417,2.6,3.954,1.778,5.2-4,8.352-3.527,10.418-2.371,10.418-2.371,7.626-5.631,3.186-13.717c0,0,3.557-4.994-1.4-8.951,0,0,1.186-8.156-5.421-11.36S120.851,534.918,120.851,534.918Z" transform="translate(-67.558 -375.428)" fill="#07345a"/>
      <path id="Path_48" data-name="Path 48" d="M304.605,943.2c-5.821-2.863-66.888,6.648-66.888,6.648L230.4,938.18l-23.838,5.409s-6.746,7.765-7.024,11.245c-.9,11.263,4.256,30.184,10.077,32.024,20.723,6.553,65.275-6.841,71.511-8.272,0,0-.225,10.095,1.663,30.7.747,8.141,1.725,17.116,2.632,24.967a125.026,125.026,0,0,0,16.36-.833S310.426,946.067,304.605,943.2Z" transform="translate(-140.323 -660.119)" fill="#f47458"/>
      <path id="Path_49" data-name="Path 49" d="M434.184,985.929c-10.445-26.378-33.118-78.168-41.331-79.626-10.771-1.909-64.274,21.043-64.274,21.043l54.283-1.132s.3.539,2.667,11.915c1.841,8.871,22.261,40.1,33.9,57.4C424.8,993.113,430.118,990.869,434.184,985.929Z" transform="translate(-231.195 -637.61)" fill="#b75742"/>
      <path id="Path_50" data-name="Path 50" d="M183.2,709.581s-13.518-.154-14.953.163,1.135,55.163,2.893,75.628,4.576,23.539,4.576,23.539,19.265.074,32.6-4.132c13.85-4.372,17.143-20.45,17.143-20.45s-12.552-36.8-17.57-48.207c-3.216-7.294-9.644-15.5-16.153-22.187A15.831,15.831,0,0,0,183.2,709.581Z" transform="translate(-118.086 -499.247)" fill="#fff"/>
      <path id="Path_51" data-name="Path 51" d="M173.91,653.365l2.709,7.41s4.727,10.48,2.235,13.254-15.563-10.637-15.563-10.637l-3.26-19.561Z" transform="translate(-112.6 -453.01)" fill="#f7a491"/>
      <path id="Path_52" data-name="Path 52" d="M161.135,650.157c3.9,6.052,10.625,8.814,15.116,9.484l-2.306-6.283L160.08,643.82Z" transform="translate(-112.635 -453.003)" fill="#f47458"/>
      <path id="Path_53" data-name="Path 53" d="M151.724,566.624a10.437,10.437,0,0,1,15.133,5.175,79.137,79.137,0,0,1,2.988,9.6c2.128,8.874-.566,18.559-4.612,19.455s-16.5-2.4-19.7-14.961C143.561,578.141,145.894,570.189,151.724,566.624Z" transform="translate(-101.917 -397.62)" fill="#f7a491"/>
      <path id="Path_54" data-name="Path 54" d="M143.931,629.332c.433,1.965-.519,3.853-2.125,4.2s-3.26-.948-3.7-2.914.519-3.853,2.125-4.2S143.489,627.367,143.931,629.332Z" transform="translate(-97.102 -440.716)" fill="#f7a491"/>
      <path id="Path_55" data-name="Path 55" d="M123.768,709.479s-15.693-.623-19.265,2.667c-2.273,2.1,2.33,23.1,2.33,23.1s12.8,24.5,14.662,38.826c3.091,23.808,5.91,38.435,7.131,39.223,7.054,2.534,30.37-2.285,31.34-5.038C170.655,777.854,123.768,709.479,123.768,709.479Z" transform="translate(-73.086 -499.168)" fill="#7354f0"/>
      <path id="Path_56" data-name="Path 56" d="M426.838,770.666l10.418-43.992a2.525,2.525,0,0,1,2.457-1.944h18.918a2.525,2.525,0,0,1,2.439,3.174l-11.476,43.29a2.531,2.531,0,0,1-2.341,1.876l-17.848.7a2.525,2.525,0,0,1-2.567-3.106Z" transform="translate(-300.283 -509.932)" fill="#184655"/>
      <path id="Path_57" data-name="Path 57" d="M324.032,855.053a22.412,22.412,0,0,0-3.047.776,18.56,18.56,0,0,1-2.89.566,24.3,24.3,0,0,1-2.982.566c.027-.077-.362-.267.548-.613,1.094-.415,3.607-.8,5.169-1.529.889-.415,2.786-1.185,2.786-1.185a19.341,19.341,0,0,0,2.62-1.849c-.24-.99-2.371-.347-3.509.368a15,15,0,0,0-2.931.951s-4.381.851-4.5.249c-.053-.255,2.576-1.091,5.039-2.3,2.276-1.123,4.4-2.62,4.247-3.091-.258-.794-2.919.193-2.919.193s-1.826.791-2.454,1.008c-.735.255-2.991.854-2.991.854s-7.949,1.731-8,1.15a3.832,3.832,0,0,1,.836-2.416c.459-.276,1.556-.347,2.012-.622a1.3,1.3,0,0,0,.533-1.577c-.29-.569-3.005-.065-3.005-.065a8.982,8.982,0,0,0-3.388,1.42c-4.114,3.45-3.376,3.974-3.915,4.4-.637.507-11.488,1.7-11.488,1.7s-31.959,3.711-33.69,3.853l1.12,10.64c1.906.2,38.788-6.224,42.573-6.989,0,0,4.825.72,7.872,1.076s6.123-.637,7-.667a28.1,28.1,0,0,0,6.562-1.523c3.029-1.082-.326-1.4-.326-1.4s-5.969,1.029-5.96.557c0-.365,3.293-.738,6.66-1.9.865-.3,1.719-.593,2.5-.889C326.151,856.046,326.3,854.614,324.032,855.053Z" transform="translate(-180.204 -595.454)" fill="#f8a492"/>
      <path id="Path_58" data-name="Path 58" d="M132.017,758.867s37.279-.267,38.722,0,1.817,9.831,2.519,13.69c.228,1.239-39.292,5.664-46.159,4.363-7.484-1.423-26.331-22.128-30.7-29.117-3.663-5.859-11.491-20.776-9.535-27.3,1.186-3.945,7.273-8.4,10.6-7.368C110.752,717.252,132.017,758.867,132.017,758.867Z" transform="translate(-60.904 -501.665)" fill="#6038ff"/>
      <path id="Path_59" data-name="Path 59" d="M506.264,808.362a1.239,1.239,0,0,1,1.669.889,2.515,2.515,0,0,1-.436,2.288c-1.186,1.185-9.087,2.051-9.087.889C498.41,811.533,503.78,809.331,506.264,808.362Z" transform="translate(-350.69 -568.715)" fill="#f7a491"/>
      <path id="Path_60" data-name="Path 60" d="M508.539,820s.913,2.919.228,2.964-9.164,1.245-9.582.246S507.419,819.448,508.539,820Z" transform="translate(-351.225 -576.914)" fill="#f7a491"/>
      <path id="Path_61" data-name="Path 61" d="M509.879,830.469a2.688,2.688,0,0,1-.329,2.1c-.658.8-8.6.821-8.977-.418S509.527,829.514,509.879,830.469Z" transform="translate(-352.204 -584.109)" fill="#f7a491"/>
      <path id="Path_62" data-name="Path 62" d="M508.73,840.107a2.581,2.581,0,0,1-.163,1.482c-.329.492-6.224.8-6.983-.35S507.859,838.933,508.73,840.107Z" transform="translate(-352.883 -590.769)" fill="#f7a491"/>
      <path id="Path_63" data-name="Path 63" d="M1410.846,442.263a9.206,9.206,0,0,1,7.258,15.362,6.111,6.111,0,0,0-1.553,3.977l-.121,5.039a2.668,2.668,0,0,1-2.517,2.6l-3.079.175a2.667,2.667,0,0,1-2.795-2.3c-.691-5.038-.593-6.938-2.667-8.782A9.194,9.194,0,0,1,1410.846,442.263Z" transform="translate(-986.645 -311.173)" fill="#f7cc7f"/>
      <path id="Path_64" data-name="Path 64" d="M1423,480.03c-.409-4.078-.7-8.6-.753-10.276a12.279,12.279,0,0,1-4.5-.264c.5,3.364.925,6.772,1.251,10.148l-.436.041c-.332-3.432-.762-6.894-1.277-10.311a4.04,4.04,0,0,1-2.4-1.372,1.615,1.615,0,0,1-.187-1.254c.3-1.1,1.642-1.108,2.306-.2a5.579,5.579,0,0,1,.676,2.478,11.879,11.879,0,0,0,4.558.3,3.945,3.945,0,0,1,.593-2.344c1.645-2.389,4.407,1.965-.139,2.721.039,1.322.317,5.948.753,10.3Zm.184-12.81a3.557,3.557,0,0,0-.507,2.027,2.567,2.567,0,0,0,1.915-1.028C1425.1,467.348,1424.064,465.922,1423.181,467.22Zm-7.706-.824a.994.994,0,0,0-.219,1.366,3.473,3.473,0,0,0,1.962,1.126,4.766,4.766,0,0,0-.566-2.075,1.745,1.745,0,0,0-1.18-.418Z" transform="translate(-995.367 -327.808)" fill="#fff"/>
      <path id="Path_65" data-name="Path 65" d="M1428.633,507.13v.124l-.121,5.039a2.668,2.668,0,0,1-2.516,2.6l-3.079.175a2.667,2.667,0,0,1-2.795-2.3c-.3-2.238-.457-3.853-.711-5.127Z" transform="translate(-998.721 -356.825)" fill="#7354f0"/>
      <path id="Path_66" data-name="Path 66" d="M1443.959,411.438l1.39-4.8a.889.889,0,1,0-1.684-.486l-1.387,4.8a.889.889,0,1,0,1.681.486Z" transform="translate(-1014.746 -285.217)" fill="#f18e1b"/>
      <path id="Path_67" data-name="Path 67" d="M1470.842,448.964l5.009-1.586a.889.889,0,1,0-.528-1.672l-5.009,1.586a.889.889,0,0,0,.528,1.672Z" transform="translate(-1034.198 -313.537)" fill="#f18e1b"/>
      <path id="Path_68" data-name="Path 68" d="M1486.746,497.056a.889.889,0,0,0-.276-1.206,28.553,28.553,0,0,0-4.852-2.433.889.889,0,1,0-.634,1.633,27.031,27.031,0,0,1,4.555,2.282.871.871,0,0,0,1.206-.276Z" transform="translate(-1041.543 -347.086)" fill="#f18e1b"/>
      <path id="Path_69" data-name="Path 69" d="M1396.069,414.671a.889.889,0,0,0,.374-1.186,33.174,33.174,0,0,1-2.534-6.4.889.889,0,1,0-1.686.471,34.827,34.827,0,0,0,2.667,6.74.889.889,0,0,0,1.18.376Z" transform="translate(-979.529 -285.866)" fill="#f18e1b"/>
      <path id="Path_70" data-name="Path 70" d="M1375.336,457.492a.889.889,0,0,0-.809-.937l-5.667-.415a.889.889,0,0,0-.127,1.746l5.667.415A.889.889,0,0,0,1375.336,457.492Z" transform="translate(-962.592 -320.948)" fill="#f18e1b"/>
      <path id="Path_71" data-name="Path 71" d="M1371.408,503.471a.935.935,0,0,0,.225-.083,27.423,27.423,0,0,0,4.843-3.319.889.889,0,0,0-1.138-1.331,25.6,25.6,0,0,1-4.535,3.106.889.889,0,0,0,.593,1.627Z" transform="translate(-964.237 -350.834)" fill="#f18e1b"/>
      <path id="Path_72" data-name="Path 72" d="M1314.839,819.4c-19.449-24.967-31.058-23.711-39.185-10.3-6.633,10.966-9.431,31.535-24.775,39.979-34.135,18.788-78.8,12.25-60.931,65.519,4.994,14.887,12.685,13.711,16.248,13.817l86.825-.086C1327.148,909.543,1338.668,850.008,1314.839,819.4Z" transform="translate(-834.402 -562.65)" fill="#e15fff"/>
      <path id="Path_73" data-name="Path 73" d="M1430.594,602.577c2-9.781-2.6-19.455-11.381-23.088a21.171,21.171,0,0,0-5.928-14.941c-7.466-7.507-22.848-10.756-28.337-1.185-7.25,4.117-6.793,9.223-4.63,17.341-7.027,7.3-4.446,19.265,5.788,25.489-.163,8.189-.376,20.542,6.763,24.043a49.857,49.857,0,0,1,4.742,2.371c-.448-.424,5.287,15.6,23.118,8.266C1438.911,633.392,1442.443,612.334,1430.594,602.577Z" transform="translate(-968.432 -392.228)" fill="#355389"/>
      <path id="Path_74" data-name="Path 74" d="M1298.187,802.864c1.432-1.414,3.951-2.667,3.8-2.872-.593-.842-6.817,5.6-6.414,3.782.228-1.011,4.683-6.266,6.266-6.464,1.532-.19,11.455-1.755,11.455-1.755L1336.23,780.3s1.135-18.029-3.731-30.175c5.335-1.621,6.36-1.971,11.832-1.547,3.121,12.321,6.479,33.073,2.425,39.123-1.707,2.546-31.517,12.383-31.517,12.383s-6.449,2.43-7.65,2.5c-.913.056-3.423-.151-4.647.039-2.786.433-6.224,4.576-6.473,4.1A5.432,5.432,0,0,1,1298.187,802.864Z" transform="translate(-911.576 -526.596)" fill="#f48c7f"/>
      <path id="Path_75" data-name="Path 75" d="M1401.533,718.145a80.512,80.512,0,0,1,4.375-7.143c2.235-3.986,8-6,8-6s1.929.039,4.149.148a1.778,1.778,0,0,0,.43.741c.833.628,5.608-.181,8.693,1.921,10.338,8.892,7.478,51.983,6.666,65.593l-25.806.11s-1.7-29.093-8.115-36.624C1395.472,731.648,1398.335,724.054,1401.533,718.145Z" transform="translate(-983.398 -496.05)" fill="#f47458"/>
      <path id="Path_76" data-name="Path 76" d="M1276.844,1042.783c-.276-.51-3.853-9.161-6.793-13.014-4.253-5.6-41.043-56.254-39.529-68.583.661-5.385,16.6-9.95,18.494-10.276,10.145,1.36-.513,10.095,7.113,17.273-4.952,1.7-7.875,3.811-6.817,5.2,4.289,5.578,27.06,50.522,28.05,51.1,4.41,2.584,6.141,1.387,6.141,1.387s-1.017,25.281-3.121,24.484S1279.965,1048.53,1276.844,1042.783Z" transform="translate(-865.784 -669.076)" fill="#f79c8d"/>
      <path id="Path_77" data-name="Path 77" d="M1395.37,1200.71l-4.256,25.468c-.957,3.3-2.564,3.26-2.964,2.819-.847-.91-1.236-7.706-1.34-11.577,1.917-5.9,1.737-17.006.554-18.26C1390.245,1199.213,1395.366,1200.144,1395.37,1200.71Z" transform="translate(-975.783 -843.749)" fill="#b75742"/>
      <path id="Path_78" data-name="Path 78" d="M1282.877,964.053c-5.708-9.464-5.4-8.266-15.335-12.543-3.98,1.6-17.306,9.95-18.992,11.494l21.186,15.367C1269.045,976.652,1276.425,968.119,1282.877,964.053Z" transform="translate(-878.501 -669.498)" fill="#f7a491"/>
      <path id="Path_79" data-name="Path 79" d="M1428.488,652.186s1.731,12.4,2.94,15.412-6.645,9.458-13.183,11.414,2-6.657,1.728-9.879-1.458-18.474-1.458-18.474Z" transform="translate(-996.163 -457.815)" fill="#f7a491"/>
      <path id="Path_80" data-name="Path 80" d="M1425.335,655.045,1425,650.67l9.973,1.523s.252,1.458.53,3.518C1431.467,658.065,1427.83,657.321,1425.335,655.045Z" transform="translate(-1002.654 -457.822)" fill="#f47458"/>
      <path id="Path_81" data-name="Path 81" d="M1419.96,579.135a11.329,11.329,0,0,1,6.358,4.606c2.427,3.717,4.093,14.656-3.9,19.766s-14.226-2.119-14.315-9.164S1409.5,577.89,1419.96,579.135Z" transform="translate(-990.761 -407.41)" fill="#f7a491"/>
      <path id="Path_82" data-name="Path 82" d="M1401.017,614.062c.685,1.7,2.036,2.753,3.023,2.371s1.236-2.1.551-3.8-2.033-2.756-3.02-2.371S1400.336,612.36,1401.017,614.062Z" transform="translate(-985.509 -429.335)" fill="#f7a491"/>
      <path id="Path_83" data-name="Path 83" d="M1469.43,621.633c-.593,1.832-.047,3.637,1.186,4.028s2.7-.771,3.284-2.6.05-3.637-1.186-4.031S1470.022,619.8,1469.43,621.633Z" transform="translate(-1033.746 -435.504)" fill="#f7a491"/>
      <path id="Path_84" data-name="Path 84" d="M1312.372,925.853c4.413-.406,19.022-1.891,19.022-1.891l25.916-3.482s4.579,10.943,4.742,17.807c.314,12.01-10.738,22.131-20.19,21.55-5.631-.347-37.481-1.043-43.7-3.349-1.286-9.781-2.762-20.388-9.357-27.427C1299.385,927.611,1306.38,926.4,1312.372,925.853Z" transform="translate(-906.829 -647.665)" fill="#466eb6"/>
      <path id="Path_85" data-name="Path 85" d="M1281.582,1065.579c-.711-.735-6.4-39.624-9.825-55.945a13.719,13.719,0,0,0-6.853-9.226l-18.485-10.077c-6.4,5.857,23.477,71.636,26.212,78.541,1.882,4.742,3.068,14.555,3.2,15.151,1.538,6.725-.465,7.3,1.446,8.708s10.486-23.145,10.486-23.145S1285.332,1069.461,1281.582,1065.579Z" transform="translate(-876.37 -696.813)" fill="#f7a491"/>
      <path id="Path_86" data-name="Path 86" d="M1300.539,940.116h0a1.9,1.9,0,0,1-2.01,1.778l-31.4.074a2.96,2.96,0,0,1-2.591-2.149l.572.382a1.9,1.9,0,0,1,2.01-1.778l31.4-.074A1.905,1.905,0,0,1,1300.539,940.116Z" transform="translate(-889.752 -660.239)" fill="#355389"/>
      <path id="Path_87" data-name="Path 87" d="M1238.765,840.557a4.533,4.533,0,0,0,.566-.036c1.627-.2,2.691-1.242,2.371-2.318L1229.72,796.74c-.3-1.076-1.879-1.778-3.5-1.574s-2.691,1.242-2.371,2.315l11.983,41.476C1236.1,839.9,1237.358,840.557,1238.765,840.557Z" transform="translate(-861.078 -559.467)" fill="#355389"/>
      <path id="Path_88" data-name="Path 88" d="M1298.6,833.453c1.8-.889,4.579-1.307,4.5-1.553-.3-.984-8.3,4.108-7.341,2.51.527-.889,6.467-5.406,8.032-5.1,1.514.3,11.437,1.879,11.437,1.879l25.533-9.229s4.87-15.88,4-28.936a36.3,36.3,0,0,1,14.523,3.127c-.851,12.682-4.09,33.453-9.819,37.937-2.41,1.891-33.8,2.009-33.8,2.009s-6.885.3-8.05,0c-.889-.228-3.207-1.206-4.446-1.4-2.783-.453-7.348,2.419-7.41,1.891A5.472,5.472,0,0,1,1298.6,833.453Z" transform="translate(-911.664 -557.982)" fill="#f7a491"/>
      <path id="Path_89" data-name="Path 89" d="M1453.908,721.62c.356-4.013.844-8.056,4.938-9.781a8.6,8.6,0,0,1,7.863.794c2.736,1.755,3.812,4.953,4.149,8.062a121.623,121.623,0,0,1,.691,21.512c-5.068-2.1-11.965-.987-17.528-1.094C1452.791,734.889,1453.443,726.851,1453.908,721.62Z" transform="translate(-1022.576 -500.432)" fill="#b75742"/>
      <path id="Path_90" data-name="Path 90" d="M1303.286,916.59c-4.363,1.117-4.117,1.034-4.295,1.144-3.082,1.944-2.836,2.786,1.894.756a.982.982,0,0,1,.379-.074l2.247.024a.94.94,0,0,0,.631-1.645h0A.946.946,0,0,0,1303.286,916.59Z" transform="translate(-912.558 -644.908)" fill="#f7a491"/>
      <path id="Path_91" data-name="Path 91" d="M1335.189,1261.321a14.386,14.386,0,0,1-.851,5.557c-1.038,2.475-5,3.4-4.04,4.677s8.613,0,8.613,0l8.859-21.666a2,2,0,0,0-.507-2.33,16.263,16.263,0,0,0-6.091-3.18S1341.665,1257.969,1335.189,1261.321Z" transform="translate(-935.917 -875.567)" fill="#f47458"/>
      <rect id="Rectangle_29" data-name="Rectangle 29" width="68.144" height="34.976" rx="17.488" transform="translate(97.771 147.042)" fill="#fff"/>
      <path id="Path_92" data-name="Path 92" d="M403.13,597.85,424.7,632.056l-8.909-34.206Z" transform="translate(-283.649 -420.657)" fill="#fff"/>
    </g>
  </g>
</svg>
