<svg xmlns="http://www.w3.org/2000/svg" width="30.5" height="30.5" viewBox="0 0 30.5 30.5">
  <g id="linkedin" transform="translate(-8 -8)">
    <path id="Path_1496" data-name="Path 1496" d="M29.6,8H16.9A8.906,8.906,0,0,0,8,16.9V29.6a8.906,8.906,0,0,0,8.9,8.9H29.6a8.906,8.906,0,0,0,8.9-8.9V16.9A8.906,8.906,0,0,0,29.6,8Zm6.354,21.6A6.361,6.361,0,0,1,29.6,35.958H16.9A6.361,6.361,0,0,1,10.542,29.6V16.9A6.361,6.361,0,0,1,16.9,10.542H29.6A6.361,6.361,0,0,1,35.958,16.9Z" fill="#66329e"/>
    <path id="Path_1497" data-name="Path 1497" d="M23.271,27A1.271,1.271,0,0,0,22,28.271V37.8a1.271,1.271,0,0,0,2.542,0V28.271A1.271,1.271,0,0,0,23.271,27Z" transform="translate(-5.104 -6.927)" fill="#66329e"/>
    <path id="Path_1498" data-name="Path 1498" d="M35.083,28.271H33.813a3.8,3.8,0,0,0-1.271.222v-.222a1.271,1.271,0,1,0-2.542,0V37.8a1.271,1.271,0,1,0,2.542,0V32.083a1.272,1.272,0,0,1,1.271-1.271h1.271a1.272,1.272,0,0,1,1.271,1.271V37.8a1.271,1.271,0,0,0,2.542,0V32.083A3.816,3.816,0,0,0,35.083,28.271Z" transform="translate(-8.021 -6.927)" fill="#66329e"/>
    <path id="Path_1499" data-name="Path 1499" d="M22.906,18a1.906,1.906,0,1,0,1.906,1.906A1.909,1.909,0,0,0,22.906,18Z" transform="translate(-4.74 -3.646)" fill="#66329e"/>
  </g>
</svg>
