<svg xmlns="http://www.w3.org/2000/svg" width="14.532" height="17.691" viewBox="0 0 14.532 17.691"><g id="linkedin" transform="translate(-1163.25 -917.5)"><path id="Path_1497" fill="#66329e" d="M23.264,27A1.264,1.264,0,0,0,22,28.264v9.478a1.264,1.264,0,0,0,2.527,0V28.264A1.264,1.264,0,0,0,23.264,27Z" data-name="Path 1497" transform="translate(1141.882 896.187)"/><path id="Path_1498" fill="#66329e" d="M35.055,28.264H33.791a3.776,3.776,0,0,0-1.264.221v-.221a1.264,1.264,0,0,0-2.527,0v9.478a1.264,1.264,0,0,0,2.527,0V32.055a1.265,1.265,0,0,1,1.264-1.264h1.264a1.265,1.265,0,0,1,1.264,1.264v5.687a1.264,1.264,0,1,0,2.527,0V32.055A3.8,3.8,0,0,0,35.055,28.264Z" data-name="Path 1498" transform="translate(1138.937 896.187)"/><path id="Path_1499" fill="#66329e" d="M22.9,18a1.9,1.9,0,1,0,1.9,1.9A1.9,1.9,0,0,0,22.9,18Z" data-name="Path 1499" transform="translate(1142.25 899.5)"/></g></svg>