<svg xmlns="http://www.w3.org/2000/svg" width="25" height="25.091" viewBox="0 0 25 25.091">
  <path id="market" d="M408.266,516.284a3.117,3.117,0,0,0-2.415-1.148H390.238v-1.568A1.568,1.568,0,0,0,388.67,512h-3.122a1.568,1.568,0,1,0,0,3.136h1.568v10.977a3.136,3.136,0,0,0,3.122,3.136h14.052a3.125,3.125,0,0,0,3.061-2.522l1.568-7.841a3.136,3.136,0,0,0-.654-2.6Zm-18.027,9.829v-7.841h15.612l-1.568,7.841H390.231Zm-1.568,4.7a3.121,3.121,0,1,0,.006,0Zm15.614,0a3.119,3.119,0,1,0,.006,0Z" transform="translate(-383.98 -512)" fill="#efaf4c" fill-rule="evenodd"/>
</svg>
