<svg xmlns="http://www.w3.org/2000/svg" width="25" height="21.875" viewBox="0 0 25 21.875">
  <path id="media_library" data-name="media library" d="M309.875,452.125h-4.319l-.7-1.4a3.125,3.125,0,0,0-2.8-1.727h-6.25a3.125,3.125,0,0,0-3.125,3.125v10.937a3.125,3.125,0,0,0,3.125,3.125h14.062A3.125,3.125,0,0,0,313,463.063V455.25A3.125,3.125,0,0,0,309.875,452.125Zm0,10.937H295.813V452.125h6.25l1.563,3.125h6.25Zm-4.687,4.688H291.125V456.813a1.563,1.563,0,0,0-3.125,0V467.75a2.921,2.921,0,0,0,.141.922,3.162,3.162,0,0,0,2.063,2.063,2.924,2.924,0,0,0,.922.141h14.062a1.562,1.562,0,1,0,0-3.125Z" transform="translate(-288 -449)" fill="#efaf4c" fill-rule="evenodd"/>
</svg>
