<svg xmlns="http://www.w3.org/2000/svg" width="18.896" height="18.49" viewBox="0 0 18.896 18.49">
  <path id="other_integration" data-name="other integration" d="M425.82,333.171l-2.37,2.312a2.908,2.908,0,0,1-4.136-.1,2.97,2.97,0,0,1-.929-2.05,2.682,2.682,0,0,1,.829-2l2.37-2.312a1.14,1.14,0,0,0,0-1.635,1.2,1.2,0,0,0-1.672,0l-2.37,2.312a4.935,4.935,0,0,0-1.519,3.687,5.256,5.256,0,0,0,1.62,3.63,5.476,5.476,0,0,0,3.832,1.588,5.187,5.187,0,0,0,3.649-1.488l2.37-2.312a1.14,1.14,0,0,0,0-1.635A1.2,1.2,0,0,0,425.82,333.171Zm-4.728.474a1.2,1.2,0,0,0,1.671,0l7.094-6.936a1.138,1.138,0,0,0,0-1.635,1.2,1.2,0,0,0-1.672,0l-7.092,6.937a1.136,1.136,0,0,0,0,1.639ZM433.3,321.7a5.32,5.32,0,0,0-7.481-.1l-2.37,2.313a1.136,1.136,0,0,0,0,1.634,1.2,1.2,0,0,0,1.671,0l2.37-2.312a2.908,2.908,0,0,1,4.137.1,2.98,2.98,0,0,1,.93,2.05,2.682,2.682,0,0,1-.83,2l-2.37,2.312a1.138,1.138,0,0,0,0,1.635,1.2,1.2,0,0,0,1.672,0l2.37-2.312a4.944,4.944,0,0,0,1.519-3.687,5.252,5.252,0,0,0-1.619-3.625Z" transform="translate(-416.022 -320.117)" fill="#fff" fill-rule="evenodd"/>
</svg>
