<svg xmlns="http://www.w3.org/2000/svg" width="87.504" height="87.504" viewBox="0 0 87.504 87.504">
  <path id="pic_big_1" d="M108.566,160H42.938A10.938,10.938,0,0,0,32,170.938v65.628A10.938,10.938,0,0,0,42.938,247.5h65.628A10.938,10.938,0,0,0,119.5,236.566V170.938A10.938,10.938,0,0,0,108.566,160Zm0,76.566H42.938V170.938h65.628ZM92.159,203.752,81.221,214.69,64.814,192.814,48.407,220.159H103.1Zm-5.469-5.469a5.469,5.469,0,1,0-5.469-5.469A5.469,5.469,0,0,0,86.69,198.283Z" transform="translate(-32 -160)" fill="#966fd6" fill-rule="evenodd"/>
</svg>
