<svg xmlns="http://www.w3.org/2000/svg" width="14.153" height="17.692" viewBox="0 0 14.153 17.692">
  <path id="pinstrest" d="M138.272,101.472c-4.989,0-7.5,3.462-7.5,6.347,0,1.748.684,3.3,2.149,3.883a.5.5,0,0,0,.18.037.352.352,0,0,0,.347-.292c.049-.178.163-.627.215-.816a.482.482,0,0,0-.151-.565,2.871,2.871,0,0,1-.694-1.992,4.9,4.9,0,0,1,5.171-4.867c2.819,0,4.368,1.667,4.368,3.893,0,2.929-1.34,5.4-3.328,5.4a1.588,1.588,0,0,1-1.657-1.958,21.237,21.237,0,0,0,.928-3.6,1.378,1.378,0,0,0-1.417-1.525c-1.124,0-2.026,1.123-2.026,2.63a3.81,3.81,0,0,0,.335,1.608s-1.147,4.711-1.349,5.537a11.019,11.019,0,0,0-.032,3.86.131.131,0,0,0,.135.112.142.142,0,0,0,.114-.054,10.72,10.72,0,0,0,1.9-3.325c.13-.452.739-2.792.739-2.792a3.04,3.04,0,0,0,2.566,1.265c3.375,0,5.665-2.976,5.665-6.962C144.92,104.28,142.283,101.472,138.272,101.472Z" transform="translate(-130.768 -101.472)" fill="#66329e"/>
</svg>
