<svg xmlns="http://www.w3.org/2000/svg" width="25" height="25" viewBox="0 0 25 25"><path id="preset" fill="#efaf4c" fill-rule="evenodd" d="M481.563,71.813h1.563v1.563A3.134,3.134,0,0,0,486.25,76.5h3.125a3.134,3.134,0,0,0,3.125-3.125V71.813h10.938a1.563,1.563,0,0,0,0-3.125H492.5V67.125A3.134,3.134,0,0,0,489.375,64H486.25a3.134,3.134,0,0,0-3.125,3.125v1.563h-1.562a1.563,1.563,0,0,0,0,3.125Zm4.688-4.687h3.125v6.25H486.25Zm17.188,14.063h-1.562V79.625A3.134,3.134,0,0,0,498.75,76.5h-3.125a3.134,3.134,0,0,0-3.125,3.125v1.562H481.563a1.563,1.563,0,0,0,0,3.125H492.5v1.563A3.134,3.134,0,0,0,495.625,89h3.125a3.134,3.134,0,0,0,3.125-3.125V84.313h1.563a1.563,1.563,0,0,0,0-3.125Zm-4.687,4.688h-3.125v-6.25h3.125Z" transform="translate(-480 -64)"/></svg>