<svg xmlns="http://www.w3.org/2000/svg" width="41" height="41.459" viewBox="0 0 41 41.459">
  <path id="published" d="M707.911,564.73l-5.125,15.547H682.294l-5.126-15.547h30.752m0-5.182H677.158a5.107,5.107,0,0,0-4.146,2.153,5.224,5.224,0,0,0-.705,4.664l5.126,15.547a5.13,5.13,0,0,0,4.861,3.547h20.5a5.13,5.13,0,0,0,4.861-3.545l5.126-15.547a5.225,5.225,0,0,0-.7-4.664,5.107,5.107,0,0,0-4.146-2.153h0Zm0,10.365Zm-2.563-12.956H679.731a2.591,2.591,0,0,1-2.563-2.591h0a2.591,2.591,0,0,1,2.563-2.591h25.627a2.591,2.591,0,0,1,2.563,2.591h0a2.591,2.591,0,0,1-2.565,2.591Zm-5.126-7.774H684.856a2.591,2.591,0,0,1-2.563-2.591h0A2.591,2.591,0,0,1,684.856,544h15.376a2.591,2.591,0,0,1,2.563,2.591h0a2.592,2.592,0,0,1-2.573,2.591Z" transform="translate(-672.045 -544)" fill="#fff" fill-rule="evenodd"/>
</svg>
