<svg xmlns="http://www.w3.org/2000/svg" width="12.813" height="12.623" viewBox="0 0 12.813 12.623"><path id="refresh_1" fill="#66329e" fill-rule="evenodd" d="M331.941,710.442a.79.79,0,0,0-.784.677,4.8,4.8,0,0,1-5.785,3.939,4.724,4.724,0,0,1-2.546-1.465H324a.788.788,0,1,0,0-1.575h-3.2a.793.793,0,0,0-.8.787v3.154a.8.8,0,1,0,1.6,0V714.6a6.428,6.428,0,0,0,11.138-3.258.8.8,0,0,0-.8-.9Zm.064-6.3a.8.8,0,0,0-.8.787v1.355a6.454,6.454,0,0,0-5.681-2.087,6.386,6.386,0,0,0-5.457,5.357.8.8,0,0,0,1.586.218,4.818,4.818,0,0,1,8.321-2.482h-1.164a.788.788,0,1,0,0,1.575h3.2a.809.809,0,0,0,.537-.2.786.786,0,0,0,.264-.583v-3.151a.8.8,0,0,0-.808-.785Z" transform="translate(-320 -704.136)"/></svg>