<svg xmlns="http://www.w3.org/2000/svg" width="41" height="41" viewBox="0 0 41 41"><path id="scheduled" fill="#fff" d="M11.611,16.816a1.6,1.6,0,0,1-3.2,0h0a1.6,1.6,0,0,1,3.2,0Zm13.934,0h0a1.6,1.6,0,0,0-3.2,0h0a1.6,1.6,0,0,0,3.2,0Zm6.967,0h0a1.6,1.6,0,1,0-3.2,0h0a1.6,1.6,0,1,0,3.2,0Zm-20.9,6.967a1.6,1.6,0,0,0-3.2,0h0a1.6,1.6,0,0,0,3.2,0Zm-1.6,5.365a1.6,1.6,0,0,0-1.6,1.6h0a1.6,1.6,0,1,0,3.2,0h0A1.6,1.6,0,0,0,10.01,29.148Zm8.568-12.332a1.6,1.6,0,0,0-3.2,0h0a1.6,1.6,0,0,0,3.2,0Zm0,6.967a1.6,1.6,0,0,0-3.2,0h0a1.6,1.6,0,0,0,3.2,0Zm-1.6,5.365a1.6,1.6,0,0,0-1.6,1.6h0a1.6,1.6,0,1,0,3.2,0h0A1.6,1.6,0,0,0,16.977,29.148ZM41,31.311a9.689,9.689,0,1,1-9.689-9.689A9.7,9.7,0,0,1,41,31.311Zm-3.2,0A6.486,6.486,0,1,0,31.311,37.8,6.494,6.494,0,0,0,37.8,31.311Zm-4.164-1.6h-.721V28.027a1.6,1.6,0,1,0-3.2,0v3.283a1.6,1.6,0,0,0,1.6,1.6h2.322a1.6,1.6,0,1,0,0-3.2ZM34.594,3.2H32.512V1.6a1.6,1.6,0,1,0-3.2,0V3.2H22.021V1.6a1.6,1.6,0,0,0-3.2,0V3.2H11.611V1.6a1.6,1.6,0,0,0-3.2,0V3.2h-2A6.414,6.414,0,0,0,0,9.609V34.594A6.414,6.414,0,0,0,6.406,41H18.658a1.6,1.6,0,1,0,0-3.2H6.406a3.207,3.207,0,0,1-3.2-3.2V9.609a3.207,3.207,0,0,1,3.2-3.2h2v1.6a1.6,1.6,0,0,0,3.2,0v-1.6h7.207v1.6a1.6,1.6,0,0,0,3.2,0v-1.6h7.287v1.6a1.6,1.6,0,1,0,3.2,0v-1.6h2.082a3.207,3.207,0,0,1,3.2,3.2v9.129a1.6,1.6,0,1,0,3.2,0V9.609A6.414,6.414,0,0,0,34.594,3.2Z"/></svg>