<svg xmlns="http://www.w3.org/2000/svg" width="25" height="25" viewBox="0 0 25 25">
  <path id="setting" d="M664.084,77.416l-1.562-1.562a3.125,3.125,0,0,0-2.209-.916h-3.394l-2.856-2.856V68.688a3.125,3.125,0,0,0-.915-2.209l-1.563-1.563A3.125,3.125,0,0,0,649.375,64h-4.687a3.125,3.125,0,0,0-2.849,1.839A3.125,3.125,0,0,0,640,68.688v4.688a3.125,3.125,0,0,0,.915,2.209l1.563,1.563a3.125,3.125,0,0,0,2.209.916h3.394l2.856,2.856v3.394a3.125,3.125,0,0,0,.915,2.209l1.563,1.563a3.125,3.125,0,0,0,2.209.916h4.688a3.125,3.125,0,0,0,2.849-1.839A3.125,3.125,0,0,0,665,84.313V79.625a3.125,3.125,0,0,0-.915-2.209Zm-2.209,6.9-3.125-3.125h-1.562V82.75l3.125,3.125h-4.687l-1.562-1.562V79.625l-4.687-4.687h-4.687l-1.562-1.562V68.688l3.125,3.125h1.563V70.25l-3.125-3.125h4.688l1.563,1.563v4.688l4.688,4.688h4.688l1.563,1.563Z" transform="translate(-640 -64)" fill="#efaf4c" fill-rule="evenodd"/>
</svg>
