<svg xmlns="http://www.w3.org/2000/svg" width="12.981" height="13.471" viewBox="0 0 12.981 13.471">
  <path id="settings_2" data-name="settings 2" d="M684.433,71.072l-.608-.351.608-.32a1.684,1.684,0,0,0,.618-2.3l-.842-1.465a1.69,1.69,0,0,0-2.312-.619l-.606.35.017-.687A1.684,1.684,0,0,0,679.624,64H677.94a1.684,1.684,0,0,0-1.684,1.684v.7l-.589-.36a1.688,1.688,0,0,0-2.307.619l-.842,1.465a1.684,1.684,0,0,0,.618,2.3l.6.344-.6.327a1.684,1.684,0,0,0-.618,2.3l.842,1.465a1.688,1.688,0,0,0,2.307.619l.606-.35-.017.685a1.684,1.684,0,0,0,1.684,1.684h1.684a1.684,1.684,0,0,0,1.684-1.684v-.7l.589.36a1.69,1.69,0,0,0,2.308-.619l.842-1.465a1.684,1.684,0,0,0-.614-2.3Zm-1.453,1.106.609.351-.842,1.465-.606-.35a1.657,1.657,0,0,0-1.659,0l-.024.013a1.65,1.65,0,0,0-.832,1.431v.7h-1.684v-.7a1.653,1.653,0,0,0-.831-1.431l-.024-.013a1.655,1.655,0,0,0-1.659,0l-.606.35-.842-1.465.594-.348a1.673,1.673,0,0,0,0-2.9l-.6-.344.842-1.465.606.35a1.656,1.656,0,0,0,1.659,0l.024-.013a1.649,1.649,0,0,0,.832-1.431v-.7h1.684v.7a1.652,1.652,0,0,0,.832,1.431l.024.013a1.654,1.654,0,0,0,1.659,0l.606-.35.842,1.465-.609.351a1.651,1.651,0,0,0-.825,1.431v.02a1.649,1.649,0,0,0,.829,1.436Zm-4.2-3.127a1.684,1.684,0,1,0,1.684,1.684A1.684,1.684,0,0,0,678.782,69.052Z" transform="translate(-672.294 -64)" fill="#66329e" fill-rule="evenodd"/>
</svg>
