<svg xmlns="http://www.w3.org/2000/svg" width="30" height="30" viewBox="0 0 30 30"><g id="share" transform="translate(-910 -860)"><g id="Rectangle_1924" fill="none" stroke="#efaf4c" stroke-width="2" data-name="Rectangle 1924" transform="translate(910 860)"><rect width="30" height="30" stroke="none" rx="10"/><rect width="28" height="28" x="1" y="1" fill="none" rx="9"/></g><path id="share_1" fill="#fff" fill-rule="evenodd" d="M334.618,331.244a3.361,3.361,0,0,0-2.335.948l-5.577-2.789a2.023,2.023,0,0,0,0-.817l5.577-2.789a3.366,3.366,0,1,0-1.038-2.424,3.258,3.258,0,0,0,.042.408l-5.577,2.789a3.373,3.373,0,1,0,0,4.85l5.577,2.789a3.275,3.275,0,0,0-.042.409,3.373,3.373,0,1,0,3.373-3.373Zm0-9a1.124,1.124,0,1,1-1.124,1.124A1.124,1.124,0,0,1,334.618,322.249Zm-11.244,7.871A1.124,1.124,0,1,1,324.5,329,1.124,1.124,0,0,1,323.374,330.12Zm11.244,5.622a1.124,1.124,0,1,1,1.124-1.124A1.124,1.124,0,0,1,334.618,335.742Z" transform="translate(596.008 546)"/></g></svg>