<svg xmlns="http://www.w3.org/2000/svg" width="18" height="18" viewBox="0 0 18 18">
  <path id="smile_happy_1" d="M73,384a9,9,0,1,0,9,9A9,9,0,0,0,73,384Zm0,15.75A6.75,6.75,0,1,1,79.75,393,6.75,6.75,0,0,1,73,399.75Zm-2.25-7.875A1.125,1.125,0,1,0,69.625,393,1.125,1.125,0,0,0,70.75,391.875Zm5.625-1.125a1.125,1.125,0,1,0,1.125,1.125A1.125,1.125,0,0,0,76.375,390.75Zm-.87,3.375a1.1,1.1,0,0,0-.823.367,2.242,2.242,0,0,1-3.361,0,1.1,1.1,0,0,0-.826-.367,1.125,1.125,0,0,0-.834,1.892,4.5,4.5,0,0,0,6.677,0,1.125,1.125,0,0,0-.833-1.892Z" transform="translate(-64 -384)" fill="#fff" fill-rule="evenodd"/>
</svg>
