<svg xmlns="http://www.w3.org/2000/svg" width="18.428" height="18.428" viewBox="0 0 18.428 18.428">
  <path id="social_media" data-name="social media" d="M361.214,256a9.214,9.214,0,1,0,9.214,9.214A9.214,9.214,0,0,0,361.214,256Zm6.807,8.062H365.79a16.625,16.625,0,0,0-.819-4.644,6.91,6.91,0,0,1,3.05,4.644Zm-6.807,8.062c-1.141,0-2.086-2.492-2.269-5.759h4.538C363.3,269.632,362.355,272.124,361.214,272.124Zm-2.269-8.062c.183-3.267,1.128-5.759,2.269-5.759s2.086,2.491,2.269,5.759Zm-1.488-4.644a16.624,16.624,0,0,0-.819,4.644h-2.231A6.91,6.91,0,0,1,357.457,259.418Zm-3.05,6.947h2.231a16.623,16.623,0,0,0,.819,4.644A6.91,6.91,0,0,1,354.407,266.366Zm10.564,4.644a16.625,16.625,0,0,0,.819-4.644h2.231a6.91,6.91,0,0,1-3.05,4.644Z" transform="translate(-352 -256)" fill="#efaf4c" fill-rule="evenodd"/>
</svg>
