<svg xmlns="http://www.w3.org/2000/svg" width="21.368" height="16.028" viewBox="0 0 21.368 16.028"><path id="sound_3" fill="#fff" fill-rule="evenodd" d="M297.35,196.671v10.685l-3.8-2.671h-2.88v-5.343h2.671l4.007-2.671m0-2.671a2.671,2.671,0,0,0-1.481.449l-3.339,2.223h-1.858A2.671,2.671,0,0,0,288,199.343v5.343a2.671,2.671,0,0,0,2.671,2.671h2.034l3.107,2.185a2.671,2.671,0,0,0,4.209-2.185V196.671A2.671,2.671,0,0,0,297.35,194Zm4.738,5.413-.036.063a1.272,1.272,0,0,0,.215,1.561,1.336,1.336,0,0,1-.008,1.959,1.268,1.268,0,0,0-.215,1.559l.035.061a1.29,1.29,0,0,0,1.958.366,3.985,3.985,0,0,0,.012-5.929,1.289,1.289,0,0,0-1.961.359Zm2.012-3.521-.036.064a1.336,1.336,0,0,0,.434,1.736,5.329,5.329,0,0,1-.009,8.638,1.336,1.336,0,0,0-.429,1.748l.037.063a1.293,1.293,0,0,0,1.843.442,8.014,8.014,0,0,0,0-13.145,1.292,1.292,0,0,0-1.84.454Z" transform="translate(-288 -194)"/></svg>