<svg xmlns="http://www.w3.org/2000/svg" width="18.487" height="18.509" viewBox="0 0 18.487 18.509">
  <path id="team_members" data-name="team members" d="M495.945,362.229a4.622,4.622,0,0,0-5.812-7.129,4.622,4.622,0,1,0-7.591,4.818,5.815,5.815,0,0,0-2.542,4.8c0,.809.416,3.466,5.777,3.466a12.783,12.783,0,0,0,1.387-.069c.439,1.063,1.768,2.38,5.546,2.38,5.361,0,5.777-2.658,5.777-3.466a5.815,5.815,0,0,0-2.542-4.8Zm-3.235-5.6a2.311,2.311,0,1,1-2.311,2.311,2.311,2.311,0,0,1,2.311-2.311Zm-9.244,0a2.311,2.311,0,1,1,2.311,2.311,2.311,2.311,0,0,1-2.311-2.311Zm-1.155,8.088a3.466,3.466,0,0,1,6.39-1.86,5.927,5.927,0,0,0-1.641,2.946,10.2,10.2,0,0,1-1.283.069C482.311,365.868,482.311,364.713,482.311,364.713Zm10.4,3.466a5.094,5.094,0,0,1-3.166-.67.714.714,0,0,1-.3-.485,3.458,3.458,0,0,1,2.23-3.235,3.36,3.36,0,0,1,1.236-.231,3.466,3.466,0,0,1,3.466,3.466S496.176,368.179,492.71,368.179Z" transform="translate(-480 -351.981)" fill="#fff" fill-rule="evenodd"/>
</svg>
