<svg xmlns="http://www.w3.org/2000/svg" width="25" height="25.008" viewBox="0 0 25 25.008"><path id="training" fill="#efaf4c" fill-rule="evenodd" d="M597.875,128H586.938a3.134,3.134,0,0,0-3.125,3.125v1.563a1.563,1.563,0,0,0,3.125,0v-1.562h10.938v17.188h-1.562a1.563,1.563,0,0,0,0,3.125h1.563A3.134,3.134,0,0,0,601,148.313V131.125A3.134,3.134,0,0,0,597.875,128Zm-1.562,6.25a1.546,1.546,0,1,0-1.563,1.563,1.562,1.562,0,0,0,1.563-1.562Zm-6.25,1.563H579.125A3.125,3.125,0,0,0,576,138.938v6.25a3.125,3.125,0,0,0,3.125,3.125h1.563v1.563h-1.719a1.406,1.406,0,0,0-1.406,1.406v.313a1.406,1.406,0,0,0,1.406,1.414h11.25a1.406,1.406,0,0,0,1.406-1.414v-.313a1.406,1.406,0,0,0-1.406-1.406H588.5v-1.562h1.563a3.125,3.125,0,0,0,3.125-3.125v-6.25A3.125,3.125,0,0,0,590.063,135.813Zm-4.687,14.063h-1.562v-1.562h1.563Zm4.688-4.687H579.125v-6.25h10.938Z" transform="translate(-576 -128)"/></svg>