<svg xmlns="http://www.w3.org/2000/svg" width="9.167" height="11" viewBox="0 0 9.167 11"><g id="trash" transform="translate(-2)"><path id="Path_95" fill="#fff" d="M10.708,1.833H9.288A2.3,2.3,0,0,0,7.042,0H6.125A2.3,2.3,0,0,0,3.879,1.833H2.458a.458.458,0,1,0,0,.917h.458V8.708A2.294,2.294,0,0,0,5.208,11h2.75A2.294,2.294,0,0,0,10.25,8.708V2.75h.458a.458.458,0,1,0,0-.917ZM6.125.917h.917a1.378,1.378,0,0,1,1.3.917H4.828a1.378,1.378,0,0,1,1.3-.917ZM9.333,8.708a1.375,1.375,0,0,1-1.375,1.375H5.208A1.375,1.375,0,0,1,3.833,8.708V2.75h5.5Z" data-name="Path 95"/><path id="Path_96" fill="#fff" d="M9.458,13.667a.458.458,0,0,0,.458-.458v-2.75a.458.458,0,0,0-.917,0v2.75A.458.458,0,0,0,9.458,13.667Z" data-name="Path 96" transform="translate(-3.792 -5.417)"/><path id="Path_97" fill="#fff" d="M13.458,13.667a.458.458,0,0,0,.458-.458v-2.75a.458.458,0,1,0-.917,0v2.75A.458.458,0,0,0,13.458,13.667Z" data-name="Path 97" transform="translate(-5.958 -5.417)"/></g></svg>