<svg id="twitter" xmlns="http://www.w3.org/2000/svg" width="30.75" height="30.75" viewBox="0 0 30.75 30.75">
  <g id="Group_757" data-name="Group 757">
    <g id="Group_756" data-name="Group 756">
      <path id="Path_1502" data-name="Path 1502" d="M22.629,0H8.121A8.034,8.034,0,0,0,0,8.121V22.629A8.034,8.034,0,0,0,8.121,30.75H22.629a8.034,8.034,0,0,0,8.121-8.121V8.121A8.035,8.035,0,0,0,22.629,0Zm6.137,22.629a6.072,6.072,0,0,1-6.137,6.137H8.121a6.072,6.072,0,0,1-6.137-6.137V8.121A6.072,6.072,0,0,1,8.121,1.984H22.629a6.072,6.072,0,0,1,6.137,6.137Z" fill="#66329e"/>
      <path id="Path_1503" data-name="Path 1503" d="M105.439,115.729a.992.992,0,0,0-1.085-.055,5.732,5.732,0,0,1-1.694.377l-.367.05a4.766,4.766,0,0,0-3.034-1.093,4.694,4.694,0,0,0-4.706,4.376,9.657,9.657,0,0,1-5.826-3.347.992.992,0,0,0-1.673.233,13.272,13.272,0,0,0-.617,4.875c0,2.917,2.3,5.061,3.881,6.189a6.779,6.779,0,0,1-3.507.541.992.992,0,0,0-.641,1.825,11.666,11.666,0,0,0,6.234,1.8,11.376,11.376,0,0,0,11.573-11.093c.2-.3.594-.874,1.253-1.887a6.776,6.776,0,0,0,.593-1.774A.991.991,0,0,0,105.439,115.729Zm-3.252,3.775a.994.994,0,0,0-.188.581,9.441,9.441,0,0,1-9.594,9.429,9.78,9.78,0,0,1-1.773-.162,8.51,8.51,0,0,0,2.182-1.222.992.992,0,0,0-.158-1.67c-.043-.022-4.236-2.227-4.236-5.314a21.1,21.1,0,0,1,.129-2.467,11.679,11.679,0,0,0,7.033,2.808c.02,0,.041,0,.06,0a.992.992,0,0,0,.923-1.378,2.673,2.673,0,0,1,2.692-3.12,2.764,2.764,0,0,1,2,.848,1,1,0,0,0,.907.29c.225-.043.485-.076.758-.112l.3-.04C102.469,119.113,102.2,119.487,102.187,119.5Z" transform="translate(-80.393 -107.878)" fill="#66329e"/>
    </g>
  </g>
</svg>
